<svg xmlns="http://www.w3.org/2000/svg" width="592.618" height="368.678" viewBox="0 0 592.618 368.678"><defs><style>.a{fill:#18b5b1;}.b{fill:#a9b3d1;mix-blend-mode:multiply;isolation:isolate;}.c{fill:none;stroke:#18b5b1;stroke-linecap:round;stroke-linejoin:round;stroke-width:0.75px;stroke-dasharray:4 12;}</style></defs><g transform="translate(69.075 -277.912)"><g transform="translate(444.604 277.912)"><path class="a" d="M379.272,181.431l-13.566-12.018,78.939-21.88-27.5,66.674L395.02,194.384l-9.216,8.469Z" transform="translate(-365.706 -147.533)"/><path class="b" d="M438.167,147.533l-49.625,46.851-9.216,8.469-6.531-21.422Z" transform="translate(-359.228 -147.533)"/></g><path class="c" d="M539.932,180.571c-45.672,11.71-92.019,23.654-128.361,40.586s-61.942,39.86-56.732,63.1c3.15,14.037,17.053,27.076,28.67,40.212s21.224,27.337,15.277,41.193-32.08,26.933-63.962,26.769" transform="translate(-85.262 160.571)"/><path class="c" d="M653.193,180.571c-70.892,5.145-142.832,10.392-199.242,17.83s-96.146,17.511-88.06,27.719c4.889,6.167,26.47,11.895,44.5,17.666s32.944,12.009,23.713,18.1-49.795,11.832-99.282,11.76" transform="translate(-403.522 372.571)"/></g></svg>