<svg xmlns="http://www.w3.org/2000/svg" width="64" height="46.125" viewBox="0 0 64 46.125"><defs><style>.a{fill:#18b5b1;}</style></defs><g transform="translate(0 -71.5)"><g transform="translate(0 71.5)"><path class="a" d="M59.313,71.5H56.03a.938.938,0,1,0,0,1.875h3.283a2.816,2.816,0,0,1,2.813,2.813V80.5H1.875V76.188a2.816,2.816,0,0,1,2.813-2.812H51.914a.938.938,0,0,0,0-1.875H4.688A4.693,4.693,0,0,0,0,76.188V86.523a.938.938,0,0,0,1.875,0V82.375h60.25v24.171a.938.938,0,0,0,1.875,0V76.188A4.693,4.693,0,0,0,59.313,71.5Z" transform="translate(0 -71.5)"/><path class="a" d="M63.063,236.32a.937.937,0,0,0-.937.938V239.7a2.816,2.816,0,0,1-2.812,2.813H4.688A2.816,2.816,0,0,1,1.875,239.7V217.3A.938.938,0,0,0,0,217.3V239.7a4.693,4.693,0,0,0,4.688,4.688H59.313A4.693,4.693,0,0,0,64,239.7v-2.438A.937.937,0,0,0,63.063,236.32Z" transform="translate(0 -198.259)"/><path class="a" d="M57.843,232.536a.938.938,0,0,0-1.326,0l-5.634,5.634a.938.938,0,0,0,0,1.326l5.559,5.559a.937.937,0,0,0,1.326-1.326l-4.9-4.9,4.971-4.971a.937.937,0,0,0,0-1.326Z" transform="translate(-44.283 -212.166)"/><path class="a" d="M206.9,245.054a.938.938,0,0,0,1.326,0l5.559-5.559a.938.938,0,0,0,0-1.326l-5.634-5.634a.937.937,0,0,0-1.326,1.326l4.971,4.971-4.9,4.9A.938.938,0,0,0,206.9,245.054Z" transform="translate(-180.732 -212.165)"/><path class="a" d="M125.427,226.256a.938.938,0,0,0,.877-.605l6.662-17.55a.937.937,0,1,0-1.753-.665l-6.662,17.55a.938.938,0,0,0,.876,1.27Z" transform="translate(-108.929 -189.914)"/><path class="a" d="M33.006,95.684a2.813,2.813,0,1,0,2.813-2.812A2.816,2.816,0,0,0,33.006,95.684Zm3.75,0a.938.938,0,1,1-.937-.937A.938.938,0,0,1,36.756,95.684Z" transform="translate(-28.88 -90.2)"/><path class="a" d="M91.166,95.684a2.813,2.813,0,1,0,2.813-2.812A2.816,2.816,0,0,0,91.166,95.684Zm3.75,0a.938.938,0,1,1-.937-.937A.938.938,0,0,1,94.916,95.684Z" transform="translate(-79.77 -90.2)"/><path class="a" d="M149.325,95.684a2.813,2.813,0,1,0,2.813-2.812A2.816,2.816,0,0,0,149.325,95.684Zm3.75,0a.938.938,0,1,1-.937-.937A.938.938,0,0,1,153.075,95.684Z" transform="translate(-130.659 -90.2)"/><path class="a" d="M315.813,202.993h5.875a2.813,2.813,0,0,0,0-5.625h-5.875a2.813,2.813,0,0,0,0,5.625Zm0-3.75h5.875a.938.938,0,0,1,0,1.875h-5.875a.938.938,0,0,1,0-1.875Z" transform="translate(-273.875 -181.634)"/><path class="a" d="M315.813,262.993h15.5a2.813,2.813,0,0,0,0-5.625h-15.5a2.813,2.813,0,0,0,0,5.625Zm0-3.75h15.5a.938.938,0,0,1,0,1.875h-15.5a.938.938,0,0,1,0-1.875Z" transform="translate(-273.875 -234.135)"/><path class="a" d="M315.813,322.993h10.9a2.813,2.813,0,0,0,0-5.625h-10.9a2.813,2.813,0,0,0,0,5.625Zm0-3.75h10.9a.938.938,0,0,1,0,1.875h-10.9a.938.938,0,0,1,0-1.875Z" transform="translate(-273.875 -286.635)"/></g></g></svg>