<svg xmlns="http://www.w3.org/2000/svg" width="64.016" height="64.492" viewBox="0 0 64.016 64.492"><defs><style>.a{fill:#18b5b1;}</style></defs><g transform="translate(-1.891 -0.001)"><path class="a" d="M177.389,66.6a5.089,5.089,0,1,0-5.089-5.089A5.1,5.1,0,0,0,177.389,66.6Zm0-8.289a3.2,3.2,0,1,1-3.2,3.2A3.2,3.2,0,0,1,177.389,58.311Z" transform="translate(-148.944 -49.314)"/><path class="a" d="M157.425,356.176a5.824,5.824,0,1,0-5.824-5.824A5.831,5.831,0,0,0,157.425,356.176Zm0-9.759a3.935,3.935,0,1,1-3.935,3.935A3.939,3.939,0,0,1,157.425,346.416Z" transform="translate(-130.853 -301.129)"/><path class="a" d="M88.771,131.633a6.175,6.175,0,1,0,6.175,6.175A6.182,6.182,0,0,0,88.771,131.633Zm0,10.46a4.285,4.285,0,1,1,4.285-4.285A4.29,4.29,0,0,1,88.771,142.093Z" transform="translate(-70.54 -115.052)"/><path class="a" d="M74.731,263.031a6.175,6.175,0,1,0-6.175-6.175A6.182,6.182,0,0,0,74.731,263.031Zm0-10.46a4.285,4.285,0,1,1-4.285,4.285A4.29,4.29,0,0,1,74.731,252.57Z" transform="translate(-58.268 -219.104)"/><path class="a" d="M22.617,61.779a.945.945,0,1,0,.339-1.859,16.676,16.676,0,0,1-9.367-5.195c-7.3-7.973-10.555-16.573-9.664-25.56C5.934,8.883,27.322-1.213,47.047,2.732a4.6,4.6,0,0,1,3.781,4.4,4.542,4.542,0,0,1-3.312,4.673,18.191,18.191,0,0,0-7.8,4.3,12.234,12.234,0,0,0-.561,16.326,16.626,16.626,0,0,1,3.721,8.418c-2.139,4.862-4.327,10.369-6.02,15.466a17.1,17.1,0,0,1-9.722,3.841.945.945,0,0,0,.061,1.888l.062,0a19.07,19.07,0,0,0,8.65-2.739,4.072,4.072,0,0,0,7.461,3.118c1.819-3.219,3.79-7.125,5.7-11.3a.945.945,0,1,0-1.718-.786c-1.888,4.124-3.834,7.981-5.627,11.154a2.19,2.19,0,0,1-2.847.895A2.168,2.168,0,0,1,37.732,59.8,182.735,182.735,0,0,1,47.964,34.387l5.078,2.174c-1.184,3.226-2.533,6.586-3.909,9.771a.945.945,0,0,0,1.735.748,155.846,155.846,0,0,0,7.173-19.849A2.144,2.144,0,0,0,59.3,26.044l.818-1.91a2.157,2.157,0,0,0,.137-1.251,12.713,12.713,0,0,0,4.914-5.459c1.409-3.291.473-8.867-.211-11.9A1.861,1.861,0,0,0,62.19,4.339c-2.665,1.6-7.346,4.769-8.755,8.061a12.713,12.713,0,0,0-.558,7.322,2.154,2.154,0,0,0-.81.965L51.25,22.6a2.143,2.143,0,0,0,.014,1.733,137.371,137.371,0,0,0-7.082,13.619A18.457,18.457,0,0,0,40.6,31.224a10.009,10.009,0,0,1-2.388-6.592c0-5.356,3.311-9.061,9.843-11.013a6.371,6.371,0,0,0,4.659-6.571A6.519,6.519,0,0,0,47.418.88C26.624-3.279,4.17,7.527,2.045,28.979,1.1,38.523,4.515,47.615,12.2,56a18.55,18.55,0,0,0,10.421,5.777Zm30.1-36.2,3.421,1.465c-.618,2.271-1.454,4.911-2.451,7.732L48.81,32.694c1.354-2.669,2.686-5.1,3.9-7.111Zm5.673-2.192-.818,1.91a.281.281,0,0,1-.368.148l-4.065-1.74a.281.281,0,0,1-.147-.368l.818-1.91a.281.281,0,0,1,.369-.147l4.065,1.74a.283.283,0,0,1,.147.368ZM55.172,13.143c.414-.966,2.017-3.6,7.956-7.164,1.519,6.76.722,9.735.309,10.7a10.9,10.9,0,0,1-4.3,4.678c-.051-.027-.1-.051-.155-.074l-4.065-1.74h0q-.079-.034-.16-.061a10.908,10.908,0,0,1,.416-6.341Z"/></g></svg>