<svg xmlns="http://www.w3.org/2000/svg" width="18.626" height="23.796" viewBox="0 0 18.626 23.796"><defs><style>.a{fill:#6b727e;}</style></defs><g transform="translate(-1.872 0)"><g transform="translate(1.872 0)"><path class="a" d="M5.528,7.338a1.381,1.381,0,0,0,.345.755c.337,2.241,2.212,4.322,3.926,4.322,2,0,3.817-2.252,4.171-4.318a1.381,1.381,0,0,0,.352-.76c.115-.42.26-1.15,0-1.491-.014-.017-.029-.033-.041-.05a4.36,4.36,0,0,0-.545-3.947A4.016,4.016,0,0,0,11.719.609L11.1.394A9.946,9.946,0,0,0,9.391,0,.407.407,0,0,0,9.25.014.707.707,0,0,1,9,.043a1.765,1.765,0,0,0-.682.116A4.887,4.887,0,0,0,5.629,2.85a6.093,6.093,0,0,0,.023,2.878.556.556,0,0,0-.127.122C5.267,6.19,5.414,6.919,5.528,7.338Zm.783-4.223c0-.01.007-.019.011-.03A4.212,4.212,0,0,1,8.576.841,1.2,1.2,0,0,1,8.9.766,1.452,1.452,0,0,0,9.373.735a10.2,10.2,0,0,1,1.5.352L11.5,1.3a3.337,3.337,0,0,1,1.664,1,.225.225,0,0,0,.023.028c1.011,1.141.489,3.026.305,3.575a.369.369,0,0,0,.253.47,3.371,3.371,0,0,1-.128.793c0,.014-.007.028-.01.041a.627.627,0,0,1-.191.416.358.358,0,0,0-.144.242c-.244,1.732-1.846,3.825-3.469,3.825-1.364,0-2.99-1.928-3.22-3.818a.364.364,0,0,0-.144-.247A.649.649,0,0,1,6.245,7.2c0-.014-.006-.029-.008-.043a3.468,3.468,0,0,1-.127-.754A.371.371,0,0,0,6.3,6.332a.365.365,0,0,0,.135-.356A6.292,6.292,0,0,1,6.311,3.116Z" transform="translate(-0.535 0)"/><path class="a" d="M18.9,10.939a3.161,3.161,0,0,0-1.373-.925l-.2-.065a15.262,15.262,0,0,0-1.674-.661c-.175-.062-.327-.123-.468-.184-.581-.289-1.066-.613-1.168-.918l.436,3.5L11.286,19.83,8.295,11.855,8.356,8.18c-.271.848-3.516,1.834-3.516,1.834a3.175,3.175,0,0,0-1.373.925c-1.427,2.117-1.6,6.825-1.6,6.825.019,1.076.483,1.189.483,1.189,3.28,1.462,8.429,1.723,8.429,1.723.278.006.537-.008.794-.025l.007.028s5.15-.261,8.429-1.723c0,0,.465-.113.483-1.189C20.5,17.765,20.331,13.055,18.9,10.939Z" transform="translate(-1.872 3.116)"/><path class="a" d="M10.587,8.336c.037-.047.075-.09.11-.139a.379.379,0,0,1-.008-.047C10.655,8.216,10.62,8.272,10.587,8.336Z" transform="translate(1.448 3.105)"/><path class="a" d="M6.583,8.184l-.008-.033-.007.039c0-.007.008-.014.01-.021A.1.1,0,0,1,6.583,8.184Z" transform="translate(-0.083 3.105)"/><path class="a" d="M7.691,9.253,9.1,11.4,10.5,9.253A3.475,3.475,0,0,1,7.691,9.253Z" transform="translate(0.345 3.525)"/><path class="a" d="M9.006,18.041l1.074-6.529-1.074-.7-1.076.7Z" transform="translate(0.436 4.118)"/></g></g></svg>