<svg xmlns="http://www.w3.org/2000/svg" width="939.175" height="560.778" viewBox="0 0 939.175 560.778"><defs><style>.a{fill:#e0e0e0;}.b{fill:#fff;}.c{fill:#90dbda;}.d{fill:#b9e9e7;}.e{opacity:0.3;}.f{fill:rgba(24,181,177,0.48);}.g{fill:#ebebeb;}.h{fill:#455a64;}.i{fill:#263238;}.j{fill:#e87a50;}.k{fill:#b78876;}.l{fill:#aa6550;}.m{fill:#fafafa;}.n{fill:#36c7ac;}.o{fill:#007f7d;}.p{fill:#18b5b1;}</style></defs><g transform="translate(-1421.744 -304.362)"><g transform="translate(1657.538 381.235)"><g transform="translate(587.673 221.873)"><g transform="translate(3.606 4.383)"><g transform="translate(103.702 107.729)"><path class="a" d="M674.005,338.435c0-.211.987-.382,2.2-.382s2.205.172,2.205.382-.987.383-2.205.383S674.005,338.647,674.005,338.435Z" transform="translate(-674.005 -338.053)"/></g><g transform="translate(94.88 107.729)"><path class="a" d="M666.3,338.435c0-.211.988-.382,2.206-.382s2.205.172,2.205.382-.988.383-2.205.383S666.3,338.647,666.3,338.435Z" transform="translate(-666.297 -338.053)"/></g><g transform="translate(86.059 107.729)"><path class="a" d="M658.59,338.435c0-.211.987-.382,2.206-.382s2.2.172,2.2.382-.987.383-2.2.383S658.59,338.647,658.59,338.435Z" transform="translate(-658.59 -338.053)"/></g><g transform="translate(77.238 107.729)"><path class="a" d="M650.882,338.435c0-.211.988-.382,2.206-.382s2.205.172,2.205.382-.988.383-2.205.383S650.882,338.647,650.882,338.435Z" transform="translate(-650.882 -338.053)"/></g><g transform="translate(68.417 107.729)"><path class="a" d="M643.175,338.435c0-.211.988-.382,2.205-.382s2.205.172,2.205.382-.988.383-2.205.383S643.175,338.647,643.175,338.435Z" transform="translate(-643.175 -338.053)"/></g><g transform="translate(59.595 107.729)"><path class="a" d="M635.467,338.435c0-.211.988-.382,2.205-.382s2.205.172,2.205.382-.988.383-2.205.383S635.467,338.647,635.467,338.435Z" transform="translate(-635.467 -338.053)"/></g><g transform="translate(50.775 107.729)"><path class="a" d="M627.76,338.435c0-.211.988-.382,2.206-.382s2.205.172,2.205.382-.988.383-2.205.383S627.76,338.647,627.76,338.435Z" transform="translate(-627.76 -338.053)"/></g><g transform="translate(41.953 107.729)"><path class="a" d="M620.052,338.435c0-.211.988-.382,2.206-.382s2.205.172,2.205.382-.988.383-2.205.383S620.052,338.647,620.052,338.435Z" transform="translate(-620.052 -338.053)"/></g><g transform="translate(33.132 107.729)"><path class="a" d="M612.345,338.435c0-.211.988-.382,2.205-.382s2.205.172,2.205.382-.988.383-2.205.383S612.345,338.647,612.345,338.435Z" transform="translate(-612.345 -338.053)"/></g><g transform="translate(24.311 107.729)"><path class="a" d="M604.638,338.435c0-.211.986-.382,2.2-.382s2.205.172,2.205.382-.986.383-2.205.383S604.638,338.647,604.638,338.435Z" transform="translate(-604.638 -338.053)"/></g><g transform="translate(15.49 107.729)"><path class="a" d="M596.93,338.435c0-.211.988-.382,2.205-.382s2.205.172,2.205.382-.988.383-2.205.383S596.93,338.647,596.93,338.435Z" transform="translate(-596.93 -338.053)"/></g><g transform="translate(6.669 107.729)"><path class="a" d="M589.223,338.435c0-.211.987-.382,2.2-.382s2.206.172,2.206.382-.987.383-2.206.383S589.223,338.647,589.223,338.435Z" transform="translate(-589.223 -338.053)"/></g><g transform="translate(0 105.577)"><path class="a" d="M583.779,336.172c.211,0,.382.988.382,2.205,0,.109,0,.214,0,.33l-.378-.378c1.062.027,1.875.187,1.875.378s-.813.351-1.875.379l-.374.01,0-.389c0-.116,0-.221,0-.33C583.4,337.16,583.568,336.172,583.779,336.172Z" transform="translate(-583.396 -336.172)"/></g><g transform="translate(0 96.756)"><path class="a" d="M583.779,328.465c.211,0,.382.987.382,2.2s-.172,2.205-.382,2.205-.383-.987-.383-2.205S583.568,328.465,583.779,328.465Z" transform="translate(-583.396 -328.465)"/></g><g transform="translate(0 87.934)"><path class="a" d="M583.779,320.757c.211,0,.382.988.382,2.205s-.172,2.205-.382,2.205-.383-.988-.383-2.205S583.568,320.757,583.779,320.757Z" transform="translate(-583.396 -320.757)"/></g><g transform="translate(0 79.113)"><path class="a" d="M583.779,313.05c.211,0,.382.987.382,2.2s-.172,2.205-.382,2.205-.383-.987-.383-2.205S583.568,313.05,583.779,313.05Z" transform="translate(-583.396 -313.05)"/></g><g transform="translate(0 70.292)"><path class="a" d="M583.779,305.342c.211,0,.382.988.382,2.205s-.172,2.205-.382,2.205-.383-.988-.383-2.205S583.568,305.342,583.779,305.342Z" transform="translate(-583.396 -305.342)"/></g><g transform="translate(0 61.471)"><path class="a" d="M583.779,297.635c.211,0,.382.987.382,2.2s-.172,2.205-.382,2.205-.383-.987-.383-2.205S583.568,297.635,583.779,297.635Z" transform="translate(-583.396 -297.635)"/></g><g transform="translate(0 52.649)"><path class="a" d="M583.779,289.927c.211,0,.382.988.382,2.205s-.172,2.205-.382,2.205-.383-.988-.383-2.205S583.568,289.927,583.779,289.927Z" transform="translate(-583.396 -289.927)"/></g><g transform="translate(0 43.829)"><path class="a" d="M583.779,282.22c.211,0,.382.988.382,2.205s-.172,2.205-.382,2.205-.383-.988-.383-2.205S583.568,282.22,583.779,282.22Z" transform="translate(-583.396 -282.22)"/></g><g transform="translate(0 35.007)"><path class="a" d="M583.779,274.512c.211,0,.382.988.382,2.205s-.172,2.205-.382,2.205-.383-.988-.383-2.205S583.568,274.512,583.779,274.512Z" transform="translate(-583.396 -274.512)"/></g><g transform="translate(0 26.186)"><path class="a" d="M583.779,266.8c.211,0,.382.988.382,2.2s-.172,2.207-.382,2.207-.383-.988-.383-2.207S583.568,266.8,583.779,266.8Z" transform="translate(-583.396 -266.805)"/></g><g transform="translate(0 17.364)"><path class="a" d="M583.779,259.1c.211,0,.382.988.382,2.205s-.172,2.205-.382,2.205-.383-.988-.383-2.205S583.568,259.1,583.779,259.1Z" transform="translate(-583.396 -259.097)"/></g><g transform="translate(0 8.544)"><path class="a" d="M583.779,251.39c.211,0,.382.988.382,2.205s-.172,2.205-.382,2.205-.383-.988-.383-2.205S583.568,251.39,583.779,251.39Z" transform="translate(-583.396 -251.39)"/></g><g transform="translate(0 0.072)"><path class="a" d="M584.44,244.3c0,.106-.253.2-.66.272l.272-.272a9.661,9.661,0,0,1,.11,1.544c0,1.219-.172,2.205-.382,2.205s-.383-.987-.383-2.205a9.661,9.661,0,0,1,.11-1.544l.053-.311.221.038C584.187,244.1,584.44,244.192,584.44,244.3Z" transform="translate(-583.396 -243.988)"/></g><g transform="translate(5.454)"><path class="a" d="M592.572,244.308c0,.211-.988.382-2.205.382s-2.206-.172-2.206-.382.988-.383,2.206-.383S592.572,244.1,592.572,244.308Z" transform="translate(-588.161 -243.925)"/></g><g transform="translate(14.275)"><path class="a" d="M600.28,244.308c0,.211-.988.382-2.205.382s-2.206-.172-2.206-.382.988-.383,2.206-.383S600.28,244.1,600.28,244.308Z" transform="translate(-595.869 -243.925)"/></g><g transform="translate(23.096)"><path class="a" d="M607.987,244.308c0,.211-.988.382-2.205.382s-2.206-.172-2.206-.382.988-.383,2.206-.383S607.987,244.1,607.987,244.308Z" transform="translate(-603.576 -243.925)"/></g><g transform="translate(31.918)"><path class="a" d="M615.694,244.308c0,.211-.987.382-2.2.382s-2.206-.172-2.206-.382.987-.383,2.206-.383S615.694,244.1,615.694,244.308Z" transform="translate(-611.284 -243.925)"/></g><g transform="translate(40.738)"><path class="a" d="M623.4,244.308c0,.211-.988.382-2.205.382s-2.205-.172-2.205-.382.988-.383,2.205-.383S623.4,244.1,623.4,244.308Z" transform="translate(-618.991 -243.925)"/></g><g transform="translate(49.56 0)"><ellipse class="a" cx="2.205" cy="0.383" rx="2.205" ry="0.383"/></g><g transform="translate(58.381)"><path class="a" d="M638.817,244.308c0,.211-.988.382-2.205.382s-2.205-.172-2.205-.382.988-.383,2.205-.383S638.817,244.1,638.817,244.308Z" transform="translate(-634.406 -243.925)"/></g><g transform="translate(67.203)"><path class="a" d="M646.524,244.308c0,.211-.987.382-2.2.382s-2.205-.172-2.205-.382.987-.383,2.205-.383S646.524,244.1,646.524,244.308Z" transform="translate(-642.114 -243.925)"/></g><g transform="translate(76.023)"><path class="a" d="M654.232,244.308c0,.211-.988.382-2.205.382s-2.205-.172-2.205-.382.988-.383,2.205-.383S654.232,244.1,654.232,244.308Z" transform="translate(-649.821 -243.925)"/></g><g transform="translate(84.845)"><path class="a" d="M661.939,244.308c0,.211-.987.382-2.2.382s-2.205-.172-2.205-.382.987-.383,2.205-.383S661.939,244.1,661.939,244.308Z" transform="translate(-657.529 -243.925)"/></g><g transform="translate(93.666)"><path class="a" d="M669.647,244.308c0,.211-.988.382-2.205.382s-2.205-.172-2.205-.382.988-.383,2.205-.383S669.647,244.1,669.647,244.308Z" transform="translate(-665.236 -243.925)"/></g><g transform="translate(102.487)"><path class="a" d="M677.354,244.308c0,.211-.987.382-2.205.382s-2.2-.172-2.2-.382.987-.383,2.2-.383S677.354,244.1,677.354,244.308Z" transform="translate(-672.944 -243.925)"/></g><g transform="translate(107.729 3.579)"><path class="a" d="M677.906,251.463c-.211,0-.382-.988-.382-2.205s.172-2.205.382-2.205.383.988.383,2.205S678.118,251.463,677.906,251.463Z" transform="translate(-677.524 -247.052)"/></g><g transform="translate(107.729 12.401)"><path class="a" d="M677.906,259.17c-.211,0-.382-.987-.382-2.2s.172-2.205.382-2.205.383.987.383,2.205S678.118,259.17,677.906,259.17Z" transform="translate(-677.524 -254.76)"/></g><g transform="translate(107.729 21.221)"><path class="a" d="M677.906,266.878c-.211,0-.382-.988-.382-2.205s.172-2.205.382-2.205.383.988.383,2.205S678.118,266.878,677.906,266.878Z" transform="translate(-677.524 -262.467)"/></g><g transform="translate(107.729 30.043)"><path class="a" d="M677.906,274.585c-.211,0-.382-.987-.382-2.2s.172-2.205.382-2.205.383.987.383,2.205S678.118,274.585,677.906,274.585Z" transform="translate(-677.524 -270.175)"/></g><g transform="translate(107.729 38.864)"><path class="a" d="M677.906,282.293c-.211,0-.382-.988-.382-2.205s.172-2.205.382-2.205.383.988.383,2.205S678.118,282.293,677.906,282.293Z" transform="translate(-677.524 -277.882)"/></g><g transform="translate(107.729 47.686)"><path class="a" d="M677.906,290c-.211,0-.382-.987-.382-2.205s.172-2.2.382-2.2.383.987.383,2.2S678.118,290,677.906,290Z" transform="translate(-677.524 -285.59)"/></g><g transform="translate(107.729 56.506)"><path class="a" d="M677.906,297.708c-.211,0-.382-.988-.382-2.205s.172-2.205.382-2.205.383.988.383,2.205S678.118,297.708,677.906,297.708Z" transform="translate(-677.524 -293.297)"/></g><g transform="translate(107.729 65.328)"><path class="a" d="M677.906,305.415c-.211,0-.382-.987-.382-2.2s.172-2.205.382-2.205.383.987.383,2.205S678.118,305.415,677.906,305.415Z" transform="translate(-677.524 -301.005)"/></g><g transform="translate(107.729 74.149)"><path class="a" d="M677.906,313.123c-.211,0-.382-.988-.382-2.205s.172-2.205.382-2.205.383.988.383,2.205S678.118,313.123,677.906,313.123Z" transform="translate(-677.524 -308.712)"/></g><g transform="translate(107.729 82.969)"><path class="a" d="M677.906,320.83c-.211,0-.382-.988-.382-2.205s.172-2.205.382-2.205.383.988.383,2.205S678.118,320.83,677.906,320.83Z" transform="translate(-677.524 -316.419)"/></g><g transform="translate(107.729 91.791)"><path class="a" d="M677.906,328.538c-.211,0-.382-.988-.382-2.205s.172-2.205.382-2.205.383.987.383,2.205S678.118,328.538,677.906,328.538Z" transform="translate(-677.524 -324.127)"/></g><g transform="translate(107.729 100.612)"><path class="a" d="M677.906,336.245c-.211,0-.382-.988-.382-2.205s.172-2.205.382-2.205.383.988.383,2.205S678.118,336.245,677.906,336.245Z" transform="translate(-677.524 -331.834)"/></g></g><rect class="a" width="7.979" height="7.979" transform="translate(107.729 107.414)"/><rect class="a" width="7.979" height="7.978" transform="translate(0 108.506)"/><rect class="a" width="7.979" height="7.979" transform="translate(107.729)"/><rect class="a" width="7.979" height="7.979" transform="translate(0 0.777)"/></g><g transform="translate(199.39 -76.873)"><g transform="translate(0.277 0.277)"><rect class="b" width="154.669" height="103.56"/></g><path class="c" d="M439.617,177.27s-.016-.648-.024-1.884-.014-3.074-.024-5.464c-.014-4.793-.032-11.825-.057-20.829-.027-17.992-.068-43.855-.116-75.385l.221.222-154.656.055h-.013l.277-.277c-.008,36.894-.016,71.977-.023,103.56l-.254-.253,111.429.125,31.834.068,8.468.031,2.186.016c.493,0,.751.015.751.015s-.238.009-.721.015l-2.157.015-8.417.031-31.778.068-111.6.125h-.254v-.255c-.007-31.582-.015-66.666-.023-103.56v-.277h.29l154.656.056h.222v.221c-.049,31.588-.089,57.5-.117,75.523-.024,8.981-.043,16-.056,20.777-.011,2.373-.019,4.188-.025,5.423S439.617,177.27,439.617,177.27Z" transform="translate(-284.671 -73.432)"/><g transform="translate(0.277 9.242)"><path class="d" d="M284.913,81.784c0-.153,34.6-.277,77.267-.277s77.273.124,77.273.277-34.59.277-77.273.277S284.913,81.937,284.913,81.784Z" transform="translate(-284.913 -81.507)"/></g><g transform="translate(3.9 3.618)"><g class="e"><path class="c" d="M290.558,77.832a1.239,1.239,0,1,1-1.24-1.239A1.24,1.24,0,0,1,290.558,77.832Z" transform="translate(-288.079 -76.593)"/></g><g class="e" transform="translate(4.247)"><path class="c" d="M294.269,77.832a1.24,1.24,0,1,1-1.24-1.239A1.24,1.24,0,0,1,294.269,77.832Z" transform="translate(-291.79 -76.593)"/></g><g class="e" transform="translate(8.434)"><path class="c" d="M297.927,77.832a1.24,1.24,0,1,1-1.239-1.239A1.24,1.24,0,0,1,297.927,77.832Z" transform="translate(-295.448 -76.593)"/></g></g><g transform="translate(13.574 20.319)"><rect class="f" width="41.257" height="41.258"/></g><g transform="translate(61.86 31.703)"><path class="d" d="M410.6,101.41c0,.152-16.092.277-35.936.277s-35.94-.125-35.94-.277,16.088-.278,35.94-.278S410.6,101.257,410.6,101.41Z" transform="translate(-338.721 -101.132)"/></g><g transform="translate(61.86 39.37)"><path class="d" d="M410.6,108.109c0,.152-16.092.277-35.936.277s-35.94-.125-35.94-.277,16.088-.278,35.94-.278S410.6,107.956,410.6,108.109Z" transform="translate(-338.721 -107.831)"/></g><g transform="translate(61.86 47.037)"><path class="d" d="M410.6,114.808c0,.152-16.092.277-35.936.277s-35.94-.125-35.94-.277,16.088-.278,35.94-.278S410.6,114.655,410.6,114.808Z" transform="translate(-338.721 -114.53)"/></g><g transform="translate(61.86 54.704)"><path class="d" d="M381.2,121.506a9.5,9.5,0,0,1-1.669.109l-4.552.088c-3.844.05-9.154.081-15.018.081s-11.176-.031-15.02-.081l-4.552-.088a9.5,9.5,0,0,1-1.669-.109,9.743,9.743,0,0,1,1.669-.108l4.552-.088c3.844-.05,9.155-.081,15.02-.081s11.174.031,15.018.081l4.552.088A9.742,9.742,0,0,1,381.2,121.506Z" transform="translate(-338.721 -121.229)"/></g><g transform="translate(16.156 75.487)"><rect class="f" width="19.389" height="19.389"/></g><g transform="translate(51.319 75.487)"><rect class="f" width="19.389" height="19.389"/></g><g transform="translate(86.482 75.487)"><rect class="f" width="19.389" height="19.389"/></g><g transform="translate(121.644 75.487)"><rect class="f" width="19.389" height="19.389"/></g></g><g transform="translate(-9 14.442)"><g transform="translate(8.199 0)"><path class="a" d="M75.17,77.108h100.2V222.392H75.853Z" transform="translate(-75.17 -77.108)"/></g><g transform="translate(0.683 0.683)"><rect class="b" width="99.291" height="143.918" transform="translate(99.291 143.918) rotate(180)"/></g><path class="a" d="M167.424,77.108V222.392H66.768V77.108Zm-1.365,143.918V78.473H68.133V221.026Z" transform="translate(-66.768 -77.108)"/><g transform="translate(12.692 15.986)"><g transform="translate(0.327 0.284)"><rect class="b" width="74.619" height="112.743"/></g><path class="a" d="M80.1,93.774s.013.194.02.556c0,.382.011.912.019,1.6.01,1.429.022,3.5.04,6.192.02,5.415.05,13.289.088,23.233.039,19.883.095,48.024.16,81.159l-.326-.326,74.609-.029h.009l-.355.355c.027-42.529.053-81.741.072-112.743l.283.283-54.291-.149-15.012-.072-3.945-.031c-.894-.011-1.369-.031-1.369-.031s.434-.02,1.31-.03l3.892-.032,14.95-.071,54.467-.149H155v.285c.02,31,.045,70.213.072,112.743v.356h-.365l-74.609-.03h-.327v-.326c.065-33.222.121-61.438.16-81.373.038-9.913.067-17.761.088-23.16.018-2.661.03-4.713.039-6.126.009-.675.016-1.193.02-1.566C80.088,93.943,80.1,93.774,80.1,93.774Z" transform="translate(-79.774 -93.49)"/></g><g transform="translate(0.397 129.01)"><path class="a" d="M67.182,224.9a12.122,12.122,0,0,1,1.6-2.474c1.064-1.473,2.571-3.478,4.3-5.642s3.373-4.069,4.6-5.41a11.694,11.694,0,0,1,2.11-2.061c.151.134-2.7,3.594-6.154,7.916S67.344,225.029,67.182,224.9Z" transform="translate(-67.175 -209.311)"/></g><g transform="translate(0.676 0.68)"><path class="a" d="M67.467,77.808c.154-.122,3.041,3.269,6.447,7.573S79.958,93.274,79.8,93.4s-3.04-3.268-6.447-7.573S67.314,77.93,67.467,77.808Z" transform="translate(-67.461 -77.805)"/></g><g transform="translate(86.976 0.794)"><g transform="translate(0.006 0.003)"><path class="b" d="M168.908,77.925,155.9,93.971" transform="translate(-155.903 -77.925)"/></g><path class="a" d="M155.9,93.971c-.152-.123,2.636-3.816,6.226-8.246s6.627-7.924,6.779-7.8-2.635,3.816-6.226,8.247S156.055,94.095,155.9,93.971Z" transform="translate(-155.897 -77.922)"/></g><g transform="translate(87.765 129.17)"><path class="a" d="M168.914,224.906c-.154.122-3.01-3.233-6.38-7.493s-5.976-7.814-5.822-7.936,3.01,3.233,6.38,7.495S169.068,224.784,168.914,224.906Z" transform="translate(-156.705 -209.475)"/></g><g transform="translate(32.222 46.93)"><path class="a" d="M122.7,152.557H109.574l-1.562,3.618a8.043,8.043,0,0,0-.768,2.988,2.481,2.481,0,0,0,1.261,2.3,10.623,10.623,0,0,0,3.646.659v1.014H99.787v-1.014a5.533,5.533,0,0,0,3.29-1.659,22.072,22.072,0,0,0,3.18-5.606L119.552,125.2h.521l13.405,30.484q1.919,4.331,3.152,5.455a4.307,4.307,0,0,0,2.633.988v1.014H121.28v-1.014h.74a5.634,5.634,0,0,0,3.043-.6,1.465,1.465,0,0,0,.6-1.261,3.379,3.379,0,0,0-.164-1.015q-.056-.246-.823-2.055Zm-.932-2.029-5.537-12.8-5.7,12.8Z" transform="translate(-99.787 -125.199)"/></g></g><g transform="translate(386.399)"><g transform="translate(2.223 2.687)"><g transform="translate(62.617 63.525)"><path class="a" d="M461.036,104.984a3.04,3.04,0,0,1,1.35-.157l.454.009-.148.147c.022-.523.079-.9.148-.9s.125.372.146.9l.007.145-.153,0-.454.009A3.069,3.069,0,0,1,461.036,104.984Z" transform="translate(-461.036 -104.088)"/></g><g transform="translate(59.009 64.265)"><path class="a" d="M457.884,104.891c0-.087.4-.157.9-.157s.9.07.9.157-.4.156-.9.156S457.884,104.977,457.884,104.891Z" transform="translate(-457.884 -104.734)"/></g><g transform="translate(55.402 64.265)"><path class="a" d="M454.732,104.891c0-.087.4-.157.9-.157s.9.07.9.157-.4.156-.9.156S454.732,104.977,454.732,104.891Z" transform="translate(-454.732 -104.734)"/></g><g transform="translate(51.793 64.265)"><path class="a" d="M451.579,104.891c0-.087.4-.157.9-.157s.9.07.9.157-.4.156-.9.156S451.579,104.977,451.579,104.891Z" transform="translate(-451.579 -104.734)"/></g><g transform="translate(48.186 64.265)"><path class="a" d="M448.427,104.891c0-.087.4-.157.9-.157s.9.07.9.157-.4.156-.9.156S448.427,104.977,448.427,104.891Z" transform="translate(-448.427 -104.734)"/></g><g transform="translate(44.577 64.265)"><path class="a" d="M445.274,104.891c0-.087.4-.157.9-.157s.9.07.9.157-.4.156-.9.156S445.274,104.977,445.274,104.891Z" transform="translate(-445.274 -104.734)"/></g><g transform="translate(40.97 64.265)"><path class="a" d="M442.122,104.891c0-.087.4-.157.9-.157s.9.07.9.157-.4.156-.9.156S442.122,104.977,442.122,104.891Z" transform="translate(-442.122 -104.734)"/></g><g transform="translate(37.361 64.265)"><path class="a" d="M438.969,104.891c0-.087.4-.157.9-.157s.9.07.9.157-.4.156-.9.156S438.969,104.977,438.969,104.891Z" transform="translate(-438.969 -104.734)"/></g><g transform="translate(33.754 64.265)"><path class="a" d="M435.817,104.891c0-.087.4-.157.9-.157s.9.07.9.157-.4.156-.9.156S435.817,104.977,435.817,104.891Z" transform="translate(-435.817 -104.734)"/></g><g transform="translate(30.146 64.265)"><path class="a" d="M432.665,104.891c0-.087.4-.157.9-.157s.9.07.9.157-.4.156-.9.156S432.665,104.977,432.665,104.891Z" transform="translate(-432.665 -104.734)"/></g><g transform="translate(26.537 64.265)"><path class="a" d="M429.512,104.891c0-.087.4-.157.9-.157s.9.07.9.157-.4.156-.9.156S429.512,104.977,429.512,104.891Z" transform="translate(-429.512 -104.734)"/></g><g transform="translate(22.93 64.265)"><path class="a" d="M426.36,104.891c0-.087.4-.157.9-.157s.9.07.9.157-.4.156-.9.156S426.36,104.977,426.36,104.891Z" transform="translate(-426.36 -104.734)"/></g><g transform="translate(19.321 64.265)"><path class="a" d="M423.207,104.891c0-.087.4-.157.9-.157s.9.07.9.157-.4.156-.9.156S423.207,104.977,423.207,104.891Z" transform="translate(-423.207 -104.734)"/></g><g transform="translate(15.714 64.265)"><path class="a" d="M420.055,104.891c0-.087.4-.157.9-.157s.9.07.9.157-.4.156-.9.156S420.055,104.977,420.055,104.891Z" transform="translate(-420.055 -104.734)"/></g><g transform="translate(12.107 64.265)"><path class="a" d="M416.9,104.891c0-.087.4-.157.9-.157s.9.07.9.157-.4.156-.9.156S416.9,104.977,416.9,104.891Z" transform="translate(-416.903 -104.734)"/></g><g transform="translate(8.498 64.265)"><path class="a" d="M413.75,104.891c0-.087.4-.157.9-.157s.9.07.9.157-.4.156-.9.156S413.75,104.977,413.75,104.891Z" transform="translate(-413.75 -104.734)"/></g><g transform="translate(4.89 64.265)"><path class="a" d="M410.6,104.891c0-.087.4-.157.9-.157s.9.07.9.157-.4.156-.9.156S410.6,104.977,410.6,104.891Z" transform="translate(-410.598 -104.734)"/></g><g transform="translate(1.282 64.265)"><path class="a" d="M407.445,104.891c0-.087.4-.157.9-.157s.9.07.9.157-.4.156-.9.156S407.445,104.977,407.445,104.891Z" transform="translate(-407.445 -104.734)"/></g><g transform="translate(0 61.939)"><path class="a" d="M406.482,102.7c.086,0,.156.4.156.9s-.07.9-.156.9-.157-.4-.157-.9S406.395,102.7,406.482,102.7Z" transform="translate(-406.325 -102.702)"/></g><g transform="translate(0 58.33)"><path class="a" d="M406.482,99.549c.086,0,.156.4.156.9s-.07.9-.156.9-.157-.4-.157-.9S406.395,99.549,406.482,99.549Z" transform="translate(-406.325 -99.549)"/></g><g transform="translate(0 54.723)"><path class="a" d="M406.482,96.4c.086,0,.156.4.156.9s-.07.9-.156.9-.157-.4-.157-.9S406.395,96.4,406.482,96.4Z" transform="translate(-406.325 -96.397)"/></g><g transform="translate(0 51.116)"><path class="a" d="M406.482,93.245c.086,0,.156.4.156.9s-.07.9-.156.9-.157-.4-.157-.9S406.395,93.245,406.482,93.245Z" transform="translate(-406.325 -93.245)"/></g><g transform="translate(0 47.507)"><path class="a" d="M406.482,90.092c.086,0,.156.4.156.9s-.07.9-.156.9-.157-.4-.157-.9S406.395,90.092,406.482,90.092Z" transform="translate(-406.325 -90.092)"/></g><g transform="translate(0 43.9)"><path class="a" d="M406.482,86.94c.086,0,.156.4.156.9s-.07.9-.156.9-.157-.4-.157-.9S406.395,86.94,406.482,86.94Z" transform="translate(-406.325 -86.94)"/></g><g transform="translate(0 40.291)"><path class="a" d="M406.482,83.787c.086,0,.156.4.156.9s-.07.9-.156.9-.157-.4-.157-.9S406.395,83.787,406.482,83.787Z" transform="translate(-406.325 -83.787)"/></g><g transform="translate(0 36.683)"><path class="a" d="M406.482,80.635c.086,0,.156.4.156.9s-.07.9-.156.9-.157-.4-.157-.9S406.395,80.635,406.482,80.635Z" transform="translate(-406.325 -80.635)"/></g><g transform="translate(0 33.076)"><path class="a" d="M406.482,77.483c.086,0,.156.4.156.9s-.07.9-.156.9-.157-.4-.157-.9S406.395,77.483,406.482,77.483Z" transform="translate(-406.325 -77.483)"/></g><g transform="translate(0 29.467)"><path class="a" d="M406.482,74.33c.086,0,.156.4.156.9s-.07.9-.156.9-.157-.4-.157-.9S406.395,74.33,406.482,74.33Z" transform="translate(-406.325 -74.33)"/></g><g transform="translate(0 25.86)"><path class="a" d="M406.482,71.178c.086,0,.156.4.156.9s-.07.9-.156.9-.157-.4-.157-.9S406.395,71.178,406.482,71.178Z" transform="translate(-406.325 -71.178)"/></g><g transform="translate(0 22.251)"><path class="a" d="M406.482,68.025c.086,0,.156.4.156.9s-.07.9-.156.9-.157-.4-.157-.9S406.395,68.025,406.482,68.025Z" transform="translate(-406.325 -68.025)"/></g><g transform="translate(0 18.644)"><path class="a" d="M406.482,64.873c.086,0,.156.4.156.9s-.07.9-.156.9-.157-.4-.157-.9S406.395,64.873,406.482,64.873Z" transform="translate(-406.325 -64.873)"/></g><g transform="translate(0 15.035)"><path class="a" d="M406.482,61.72c.086,0,.156.4.156.9s-.07.9-.156.9-.157-.4-.157-.9S406.395,61.72,406.482,61.72Z" transform="translate(-406.325 -61.72)"/></g><g transform="translate(0 11.428)"><path class="a" d="M406.482,58.568c.086,0,.156.4.156.9s-.07.9-.156.9-.157-.4-.157-.9S406.395,58.568,406.482,58.568Z" transform="translate(-406.325 -58.568)"/></g><g transform="translate(0 7.82)"><path class="a" d="M406.482,55.416c.086,0,.156.4.156.9s-.07.9-.156.9-.157-.4-.157-.9S406.395,55.416,406.482,55.416Z" transform="translate(-406.325 -55.416)"/></g><g transform="translate(0 4.212)"><path class="a" d="M406.482,52.263c.086,0,.156.4.156.9s-.07.9-.156.9-.157-.4-.157-.9S406.395,52.263,406.482,52.263Z" transform="translate(-406.325 -52.263)"/></g><g transform="translate(0 0.604)"><path class="a" d="M406.482,49.111c.086,0,.156.4.156.9s-.07.9-.156.9-.157-.4-.157-.9S406.395,49.111,406.482,49.111Z" transform="translate(-406.325 -49.111)"/></g><g transform="translate(1.512)"><path class="a" d="M409.451,48.74c0,.086-.4.156-.9.156s-.9-.07-.9-.156.4-.157.9-.157S409.451,48.653,409.451,48.74Z" transform="translate(-407.646 -48.583)"/></g><g transform="translate(5.12)"><path class="a" d="M412.6,48.74c0,.086-.4.156-.9.156s-.9-.07-.9-.156.4-.157.9-.157S412.6,48.653,412.6,48.74Z" transform="translate(-410.799 -48.583)"/></g><g transform="translate(8.728)"><path class="a" d="M415.756,48.74c0,.086-.4.156-.9.156s-.9-.07-.9-.156.4-.157.9-.157S415.756,48.653,415.756,48.74Z" transform="translate(-413.951 -48.583)"/></g><g transform="translate(12.337)"><path class="a" d="M418.908,48.74c0,.086-.4.156-.9.156s-.9-.07-.9-.156.4-.157.9-.157S418.908,48.653,418.908,48.74Z" transform="translate(-417.104 -48.583)"/></g><g transform="translate(15.944)"><path class="a" d="M422.06,48.74c0,.086-.4.156-.9.156s-.9-.07-.9-.156.4-.157.9-.157S422.06,48.653,422.06,48.74Z" transform="translate(-420.256 -48.583)"/></g><g transform="translate(19.553)"><path class="a" d="M425.213,48.74c0,.086-.4.156-.9.156s-.9-.07-.9-.156.4-.157.9-.157S425.213,48.653,425.213,48.74Z" transform="translate(-423.409 -48.583)"/></g><g transform="translate(23.16)"><path class="a" d="M428.365,48.74c0,.086-.4.156-.9.156s-.9-.07-.9-.156.4-.157.9-.157S428.365,48.653,428.365,48.74Z" transform="translate(-426.561 -48.583)"/></g><g transform="translate(26.768)"><path class="a" d="M431.518,48.74c0,.086-.4.156-.9.156s-.9-.07-.9-.156.4-.157.9-.157S431.518,48.653,431.518,48.74Z" transform="translate(-429.713 -48.583)"/></g><g transform="translate(30.376)"><path class="a" d="M434.67,48.74c0,.086-.4.156-.9.156s-.9-.07-.9-.156.4-.157.9-.157S434.67,48.653,434.67,48.74Z" transform="translate(-432.866 -48.583)"/></g><g transform="translate(33.984)"><path class="a" d="M437.822,48.74c0,.086-.4.156-.9.156s-.9-.07-.9-.156.4-.157.9-.157S437.822,48.653,437.822,48.74Z" transform="translate(-436.018 -48.583)"/></g><g transform="translate(37.592)"><path class="a" d="M440.975,48.74c0,.086-.4.156-.9.156s-.9-.07-.9-.156.4-.157.9-.157S440.975,48.653,440.975,48.74Z" transform="translate(-439.171 -48.583)"/></g><g transform="translate(41.2)"><path class="a" d="M444.127,48.74c0,.086-.4.156-.9.156s-.9-.07-.9-.156.4-.157.9-.157S444.127,48.653,444.127,48.74Z" transform="translate(-442.323 -48.583)"/></g><g transform="translate(44.807)"><path class="a" d="M447.28,48.74c0,.086-.4.156-.9.156s-.9-.07-.9-.156.4-.157.9-.157S447.28,48.653,447.28,48.74Z" transform="translate(-445.475 -48.583)"/></g><g transform="translate(48.416)"><path class="a" d="M450.432,48.74c0,.086-.4.156-.9.156s-.9-.07-.9-.156.4-.157.9-.157S450.432,48.653,450.432,48.74Z" transform="translate(-448.628 -48.583)"/></g><g transform="translate(52.023)"><path class="a" d="M453.584,48.74c0,.086-.4.156-.9.156s-.9-.07-.9-.156.4-.157.9-.157S453.584,48.653,453.584,48.74Z" transform="translate(-451.78 -48.583)"/></g><g transform="translate(55.632)"><path class="a" d="M456.737,48.74c0,.086-.4.156-.9.156s-.9-.07-.9-.156.4-.157.9-.157S456.737,48.653,456.737,48.74Z" transform="translate(-454.933 -48.583)"/></g><g transform="translate(59.239)"><path class="a" d="M459.889,48.74c0,.086-.4.156-.9.156s-.9-.07-.9-.156.4-.157.9-.157S459.889,48.653,459.889,48.74Z" transform="translate(-458.085 -48.583)"/></g><g transform="translate(62.848)"><path class="a" d="M462.812,48.97c-.04,0-.077-.086-.1-.23l.1.1a3.736,3.736,0,0,1-.672.053c-.5,0-.9-.07-.9-.156s.4-.157.9-.157a3.633,3.633,0,0,1,.672.053l.119.023-.016.081C462.887,48.884,462.851,48.97,462.812,48.97Z" transform="translate(-461.238 -48.583)"/></g><g transform="translate(64.265 2.191)"><path class="a" d="M462.633,52.3c-.087,0-.157-.4-.157-.9s.07-.9.157-.9.156.4.156.9S462.719,52.3,462.633,52.3Z" transform="translate(-462.476 -50.497)"/></g><g transform="translate(64.265 5.798)"><path class="a" d="M462.633,55.453c-.087,0-.157-.4-.157-.9s.07-.9.157-.9.156.4.156.9S462.719,55.453,462.633,55.453Z" transform="translate(-462.476 -53.649)"/></g><g transform="translate(64.265 9.407)"><path class="a" d="M462.633,58.606c-.087,0-.157-.4-.157-.9s.07-.9.157-.9.156.4.156.9S462.719,58.606,462.633,58.606Z" transform="translate(-462.476 -56.802)"/></g><g transform="translate(64.265 13.014)"><path class="a" d="M462.633,61.758c-.087,0-.157-.4-.157-.9s.07-.9.157-.9.156.4.156.9S462.719,61.758,462.633,61.758Z" transform="translate(-462.476 -59.954)"/></g><g transform="translate(64.265 16.622)"><path class="a" d="M462.633,64.911c-.087,0-.157-.4-.157-.9s.07-.9.157-.9.156.4.156.9S462.719,64.911,462.633,64.911Z" transform="translate(-462.476 -63.106)"/></g><g transform="translate(64.265 20.23)"><path class="a" d="M462.633,68.063c-.087,0-.157-.4-.157-.9s.07-.9.157-.9.156.4.156.9S462.719,68.063,462.633,68.063Z" transform="translate(-462.476 -66.259)"/></g><g transform="translate(64.265 23.838)"><path class="a" d="M462.633,71.216c-.087,0-.157-.4-.157-.9s.07-.9.157-.9.156.4.156.9S462.719,71.216,462.633,71.216Z" transform="translate(-462.476 -69.411)"/></g><g transform="translate(64.265 27.446)"><path class="a" d="M462.633,74.368c-.087,0-.157-.4-.157-.9s.07-.9.157-.9.156.4.156.9S462.719,74.368,462.633,74.368Z" transform="translate(-462.476 -72.564)"/></g><g transform="translate(64.265 31.054)"><path class="a" d="M462.633,77.52c-.087,0-.157-.4-.157-.9s.07-.9.157-.9.156.4.156.9S462.719,77.52,462.633,77.52Z" transform="translate(-462.476 -75.716)"/></g><g transform="translate(64.265 34.662)"><path class="a" d="M462.633,80.673c-.087,0-.157-.4-.157-.9s.07-.9.157-.9.156.4.156.9S462.719,80.673,462.633,80.673Z" transform="translate(-462.476 -78.869)"/></g><g transform="translate(64.265 38.27)"><path class="a" d="M462.633,83.825c-.087,0-.157-.4-.157-.9s.07-.9.157-.9.156.4.156.9S462.719,83.825,462.633,83.825Z" transform="translate(-462.476 -82.021)"/></g><g transform="translate(64.265 41.877)"><path class="a" d="M462.633,86.978c-.087,0-.157-.4-.157-.9s.07-.9.157-.9.156.4.156.9S462.719,86.978,462.633,86.978Z" transform="translate(-462.476 -85.173)"/></g><g transform="translate(64.265 45.486)"><path class="a" d="M462.633,90.13c-.087,0-.157-.4-.157-.9s.07-.9.157-.9.156.4.156.9S462.719,90.13,462.633,90.13Z" transform="translate(-462.476 -88.326)"/></g><g transform="translate(64.265 49.093)"><path class="a" d="M462.633,93.282c-.087,0-.157-.4-.157-.9s.07-.9.157-.9.156.4.156.9S462.719,93.282,462.633,93.282Z" transform="translate(-462.476 -91.478)"/></g><g transform="translate(64.265 52.702)"><path class="a" d="M462.633,96.435c-.087,0-.157-.4-.157-.9s.07-.9.157-.9.156.4.156.9S462.719,96.435,462.633,96.435Z" transform="translate(-462.476 -94.631)"/></g><g transform="translate(64.265 56.309)"><path class="a" d="M462.633,99.587c-.087,0-.157-.4-.157-.9s.07-.9.157-.9.156.4.156.9S462.719,99.587,462.633,99.587Z" transform="translate(-462.476 -97.783)"/></g><g transform="translate(64.265 59.918)"><path class="a" d="M462.633,102.74c-.087,0-.157-.4-.157-.9s.07-.9.157-.9.156.4.156.9S462.719,102.74,462.633,102.74Z" transform="translate(-462.476 -100.936)"/></g></g><rect class="a" width="4.76" height="4.76" transform="translate(64.265 64.077)"/><rect class="a" width="4.76" height="4.759" transform="translate(0 64.728)"/><rect class="a" width="4.76" height="4.76" transform="translate(64.265)"/><rect class="a" width="4.76" height="4.76" transform="translate(0 0.463)"/></g><g transform="translate(648.916 46.625)"><path class="g" d="M666.232,106.362h-3.848l-8.4-11.7V86.975s-5.949-.366-5.249,9.694-.057,7.5-.057,7.5-12.632.049-13.681,1.146c-.763.8-1.108,13.345-1.241,20.149a7.367,7.367,0,0,0,5.221,7.421,5.459,5.459,0,0,0,1.36.183c3.15,0,19.247-2.561,19.247-2.561h6.647Z" transform="translate(-633.756 -86.974)"/><g transform="translate(34.536 17.28)"><path class="g" d="M672.89,102.072l-2.367,26.323h-6.591V102.6Z" transform="translate(-663.932 -102.072)"/></g></g></g><path class="h" d="M292.865,365.434c0,5.885,3.412,118.847,3.412,118.847l-48.1-.243-8.406-50.207-2.213,50.207H191.418l5.009-123.991Z" transform="translate(1608.782 380.345)"/><path class="i" d="M159.344,336.725,134.777,300.1,153,285.294l30.814,28.58s13.266-74.366,26.33-78.874l-1.017,115.368h0A39.48,39.48,0,0,1,159.344,336.725Z" transform="translate(1600.597 362.276)"/><path class="j" d="M272.361,216.788l-9.733-3.309-36.371,8.349-3.222,2.669-19.26,178.23c8.269,8.525,34.335,10.217,49.136,7.693Z" transform="translate(1610.568 359.166)"/><path class="i" d="M267,216.96l-4.68-2.339s-10.3,45.371-10.3,75.339-6.474,138.609-6.474,138.609l49.066-1.264V307.29Z" transform="translate(1616.604 359.331)"/><path class="i" d="M206.123,429.242,187.534,423.8l6.486-87.837-1.23-63.673,9.736-35.487L225.6,222.543S207.393,418.66,206.123,429.242Z" transform="translate(1608.22 360.476)"/><g transform="translate(1817.129 476.756)"><g transform="translate(4.814 17.587)"><path class="k" d="M241.593,248.6h0a17.911,17.911,0,0,1-16.322-17.908l.06-15.937s-14.724-2.29-14.906-17.011,2.371-48.526,2.371-48.526h0a51.163,51.163,0,0,1,51.41,6.463l2.181,1.679-5.339,74.676A17.911,17.911,0,0,1,241.593,248.6Z" transform="translate(-210.416 -145.063)"/><g transform="translate(14.857 64.028)"><path class="l" d="M223.431,206.461a34.228,34.228,0,0,0,19.192-5.454s-4.537,10.595-19.226,9.268Z" transform="translate(-223.397 -201.007)"/></g><g transform="translate(53.583 27.084)"><path class="k" d="M257.809,169.192c.251-.109,10.115-2.992,9.793,7.073s-10.36,7.666-10.368,7.376S257.809,169.192,257.809,169.192Z" transform="translate(-257.234 -168.728)"/><g transform="translate(3.186 3.295)"><path class="l" d="M260.028,179.51c.045-.03.172.129.464.275a1.756,1.756,0,0,0,1.309.069c1.076-.357,2.025-2.017,2.132-3.828a5.8,5.8,0,0,0-.411-2.526,2.027,2.027,0,0,0-1.276-1.388.893.893,0,0,0-1.049.447c-.144.277-.087.481-.141.5-.029.024-.211-.175-.117-.588a1.128,1.128,0,0,1,.417-.618,1.322,1.322,0,0,1,.977-.225,2.467,2.467,0,0,1,1.782,1.619,5.949,5.949,0,0,1,.518,2.825c-.129,2.026-1.228,3.89-2.7,4.264a1.878,1.878,0,0,1-1.6-.318C260.039,179.755,259.993,179.527,260.028,179.51Z" transform="translate(-260.018 -171.607)"/></g></g><g transform="translate(5.133 14.727)"><g transform="translate(0 7.93)"><g transform="translate(2.073 2.25)"><path class="i" d="M216.713,168.727a2.1,2.1,0,0,0,2.027,2.121,2.011,2.011,0,0,0,2.168-1.9,2.1,2.1,0,0,0-2.026-2.123A2.013,2.013,0,0,0,216.713,168.727Z" transform="translate(-216.712 -166.826)"/></g><path class="i" d="M214.934,167.07c.26.274,1.853-.905,4.116-.9,2.259-.027,3.92,1.136,4.165.86.121-.122-.144-.617-.867-1.143a5.768,5.768,0,0,0-3.334-1.028,5.544,5.544,0,0,0-3.277,1.058C215.041,166.451,214.806,166.946,214.934,167.07Z" transform="translate(-214.901 -164.86)"/><g transform="translate(22.237 0.422)"><g transform="translate(2.073 2.782)"><path class="i" d="M236.143,169.56a2.1,2.1,0,0,0,2.027,2.121,2.011,2.011,0,0,0,2.168-1.9,2.1,2.1,0,0,0-2.026-2.122A2.011,2.011,0,0,0,236.143,169.56Z" transform="translate(-236.142 -167.66)"/></g><path class="i" d="M234.363,167.438c.261.275,1.856-.9,4.117-.9,2.259-.026,3.92,1.138,4.166.861.12-.122-.143-.617-.869-1.143a5.769,5.769,0,0,0-3.334-1.028,5.543,5.543,0,0,0-3.277,1.058C234.473,166.82,234.236,167.315,234.363,167.438Z" transform="translate(-234.33 -165.229)"/></g><g transform="translate(8.297 0.558)"><path class="i" d="M227.914,184.2a14.945,14.945,0,0,0-3.675-.664c-.577-.06-1.124-.174-1.221-.569a2.939,2.939,0,0,1,.386-1.712l1.708-4.4c2.373-6.263,4.09-11.413,3.837-11.507s-2.382,4.908-4.754,11.171q-.857,2.316-1.637,4.425a3.342,3.342,0,0,0-.3,2.267,1.448,1.448,0,0,0,.949.845,3.914,3.914,0,0,0,.982.136A14.755,14.755,0,0,0,227.914,184.2Z" transform="translate(-222.15 -165.348)"/></g></g><g transform="translate(21.674)"><path class="i" d="M233.85,159.627c.223.615,2.482.324,5.136.643,2.661.267,4.8,1.044,5.153.492.157-.263-.215-.842-1.082-1.437a8.991,8.991,0,0,0-7.839-.865C234.245,158.852,233.754,159.335,233.85,159.627Z" transform="translate(-233.839 -157.931)"/></g><g transform="translate(0.806 1.249)"><path class="i" d="M215.663,161.366c.4.514,1.957-.019,3.831-.045,1.874-.09,3.461.346,3.826-.192.16-.261-.089-.776-.783-1.262a5.549,5.549,0,0,0-6.169.191C215.706,160.585,215.488,161.115,215.663,161.366Z" transform="translate(-215.605 -159.023)"/></g></g></g><g transform="translate(0 0)"><path class="i" d="M206.232,142.148a5.435,5.435,0,0,1,2.006-4.856,3.856,3.856,0,0,1,4.995.374,4.5,4.5,0,0,1,3.867-5.456c2.4-.152,4.449,1.662,6.769,2.3a10.935,10.935,0,0,0,6.874-.794c2.178-.877,4.214-2.088,6.419-2.893a18.826,18.826,0,0,1,24.078,11.054c3.219-1.006,6.877.629,8.863,3.356a13.715,13.715,0,0,1,2.1,9.66,30.679,30.679,0,0,1-1.682,6.6c0,.19.018.375.015.565-.152,8.1-1.067,17.6-4.521,17.654-6.019.093-4.585-11.248-4.585-11.248-7.388-2.854-4.635-13.923-6.482-15.6s-5.711-5.581-21.178,2.324c-6.005,3.07-13.99,2.973-18.35,1.985-.128-.027-.257-.047-.385-.078-.027-.007-.063-.011-.09-.018-.047-.013-.081-.039-.127-.051a13.959,13.959,0,0,1-3.967-1.684,7.835,7.835,0,0,1-3.269-3.634,4.291,4.291,0,0,1,.844-4.608A9.445,9.445,0,0,1,206.232,142.148Z" transform="translate(-206.209 -129.696)"/></g></g><path class="l" d="M225.548,188.219a10.1,10.1,0,0,0,1.313,2.572,3.413,3.413,0,0,0,2.427,1.409,3.063,3.063,0,0,0,2.592-1.413,4.891,4.891,0,0,0,.723-2.948c-.042-.929-.468-2.038-1.392-2.148a2.34,2.34,0,0,0-1.122.248q-2.427.985-4.856,1.97" transform="translate(1613.668 355.15)"/><g transform="translate(1837.98 540.331)"><path class="i" d="M227.6,192.278a7.03,7.03,0,0,0,2.59-.32,3.7,3.7,0,0,0,1.957-1.779,3.9,3.9,0,0,0,.064-3.177,3.457,3.457,0,0,0-.423-.726c-.192-.2-.157-.192-.366-.161-.2.053-.517.2-.778.306l-.8.324c-1.039.421-1.98.789-2.774,1.085a8.867,8.867,0,0,1-2.645.8,8.873,8.873,0,0,1,2.4-1.36c.765-.37,1.68-.8,2.7-1.255l.786-.353a8.73,8.73,0,0,1,.887-.365,1.132,1.132,0,0,1,.72.021,1.334,1.334,0,0,1,.536.423,4.159,4.159,0,0,1,.546.921,4.551,4.551,0,0,1-.148,3.884,4.151,4.151,0,0,1-2.465,1.993,3.922,3.922,0,0,1-2.1.082C227.811,192.49,227.584,192.326,227.6,192.278Z" transform="translate(-224.428 -185.244)"/></g><g transform="translate(1826.752 490.045)"><path class="h" d="M254.219,149.814a8.91,8.91,0,0,0,.008-1.782,6.955,6.955,0,0,0-2.3-4.134,9.366,9.366,0,0,0-6.628-2.189,28.866,28.866,0,0,0-8.611,1.926c-1.5.5-2.987.968-4.458,1.293a23.071,23.071,0,0,1-4.3.523,23.367,23.367,0,0,1-7.253-.953,22.573,22.573,0,0,1-4.539-1.925c-.509-.282-.887-.53-1.14-.7a1.867,1.867,0,0,1-.374-.28c.024-.038.562.315,1.594.835a24.985,24.985,0,0,0,4.544,1.78,23.844,23.844,0,0,0,7.155.848,23.129,23.129,0,0,0,4.224-.538c1.446-.325,2.912-.8,4.414-1.291a28.511,28.511,0,0,1,8.743-1.914,9.6,9.6,0,0,1,6.841,2.363,6.96,6.96,0,0,1,2.26,4.34A4.066,4.066,0,0,1,254.219,149.814Z" transform="translate(-214.618 -141.307)"/></g><g transform="translate(1868.634 494.714)"><path class="h" d="M260.377,174.1a1.25,1.25,0,0,1-.193-.31c-.118-.208-.271-.524-.458-.938a18.913,18.913,0,0,1-1.172-3.659,20.169,20.169,0,0,1-.38-5.69,50.711,50.711,0,0,1,1.314-6.84,13.4,13.4,0,0,0,.014-6.765,6.837,6.837,0,0,0-1.411-2.565,5.165,5.165,0,0,0-2.115-1.387,4.828,4.828,0,0,0-3.633.093,7.07,7.07,0,0,0-1.131.792,2.818,2.818,0,0,1,1.053-.942,4.889,4.889,0,0,1,3.809-.233,5.421,5.421,0,0,1,2.283,1.436,7.131,7.131,0,0,1,1.526,2.686,13.559,13.559,0,0,1,.03,6.973,54.467,54.467,0,0,0-1.34,6.783,20.888,20.888,0,0,0,.282,5.6,21.929,21.929,0,0,0,1.029,3.657A13.244,13.244,0,0,1,260.377,174.1Z" transform="translate(-251.212 -145.386)"/></g><g transform="translate(1825.185 480.807)"><path class="h" d="M255.83,149.791a3.148,3.148,0,0,1,.006-.592c.016-.429.038-.989.063-1.688a19.542,19.542,0,0,0-.68-6.114,10.806,10.806,0,0,0-1.966-3.713,7.6,7.6,0,0,0-3.947-2.608,9.972,9.972,0,0,0-5.268.216,24.384,24.384,0,0,0-5.268,2.387,43.425,43.425,0,0,1-5.223,2.687,15.95,15.95,0,0,1-5.384,1.082,17.025,17.025,0,0,1-4.931-.605,19.036,19.036,0,0,1-4-1.648,16.341,16.341,0,0,1-4.736-4.042,10.259,10.259,0,0,1-.96-1.4,3.037,3.037,0,0,1-.285-.517,3.011,3.011,0,0,1,.358.47,12.87,12.87,0,0,0,1.017,1.34,16.957,16.957,0,0,0,4.754,3.881,19.156,19.156,0,0,0,3.945,1.569,16.826,16.826,0,0,0,4.825.553,15.723,15.723,0,0,0,5.238-1.076,44.083,44.083,0,0,0,5.167-2.671,24.5,24.5,0,0,1,5.365-2.418,10.322,10.322,0,0,1,5.488-.193,7.938,7.938,0,0,1,4.121,2.766,11.013,11.013,0,0,1,1.982,3.854,18.711,18.711,0,0,1,.555,6.208c-.044.736-.1,1.3-.145,1.689A2.985,2.985,0,0,1,255.83,149.791Z" transform="translate(-213.249 -133.236)"/></g><path class="i" d="M266.9,216.665S302,227.9,304.342,233.982c1.756,4.563,20.2,59.928,24.179,96.013a26.5,26.5,0,0,1-24,29.178c-23.767,2.184-58.277,5.019-58.277,3.065V332.314l44.7-6.6-16.562-48.674Z" transform="translate(1616.704 359.627)"/><g transform="translate(1834.13 710.011)"><path class="l" d="M230.291,335.539a14.909,14.909,0,0,1-9.225-2.017c.071-.16,2.04.63,4.576,1.175C228.174,335.26,230.292,335.363,230.291,335.539Z" transform="translate(-221.064 -333.502)"/></g><g transform="translate(1831.637 703.573)"><path class="l" d="M229.443,329.308a14.669,14.669,0,0,1-10.555-1.411c.069-.167,2.31.73,5.225,1.107C227.023,329.405,229.421,329.128,229.443,329.308Z" transform="translate(-218.886 -327.876)"/></g><g transform="translate(1829.574 684.818)"><path class="l" d="M229.019,311.49a8.974,8.974,0,0,1,1.593,2.908,10.753,10.753,0,0,1,.507,1.621,3.9,3.9,0,0,1-.021,2.011,5.952,5.952,0,0,1-2.837,3.471,7.384,7.384,0,0,1-2.188.862,13.272,13.272,0,0,1-2.144.221c-1.356.047-2.565.025-3.578.05-2.029.01-3.241.3-3.268.224a7.934,7.934,0,0,1,3.248-.646c1.021-.079,2.236-.1,3.57-.179a13.6,13.6,0,0,0,2.049-.243,7.04,7.04,0,0,0,2.009-.8,5.543,5.543,0,0,0,2.611-3.107,3.435,3.435,0,0,0,.064-1.765,11.618,11.618,0,0,0-.418-1.574C229.569,312.632,228.94,311.535,229.019,311.49Z" transform="translate(-217.083 -311.489)"/></g><path class="h" d="M291.508,311.884a12.016,12.016,0,0,1-1.761.373l-4.834.828c-4.085.675-9.734,1.569-15.981,2.513s-11.912,1.758-16.017,2.3-6.666.813-6.668.66l1.767-.3,4.84-.777,15.989-2.471c6.246-.943,11.905-1.773,16.007-2.341l4.863-.641A9.215,9.215,0,0,1,291.508,311.884Z" transform="translate(1616.704 373.383)"/><path class="h" d="M304.945,308.163a20.521,20.521,0,0,1-3.524-.03c-2.172-.094-5.17-.265-8.478-.491a16.464,16.464,0,0,0-4.573.051,4.606,4.606,0,0,0-2.978,1.89,3.214,3.214,0,0,0-.42,2.344c.135.57.354.841.31.871-.019.021-.311-.2-.533-.807a3.3,3.3,0,0,1,.279-2.621,4.928,4.928,0,0,1,3.217-2.212,15.794,15.794,0,0,1,4.739-.11c3.308.225,6.3.463,8.466.665A20.564,20.564,0,0,1,304.945,308.163Z" transform="translate(1622.246 372.669)"/><path class="h" d="M297.532,315.645a36.222,36.222,0,0,1-6.368-1.573,36.279,36.279,0,0,1-6.2-2.145,36.244,36.244,0,0,1,6.369,1.573A36.256,36.256,0,0,1,297.532,315.645Z" transform="translate(1622.299 373.389)"/><path class="h" d="M271.717,264.011c.158-.048,3.763,11.333,8.053,25.416s7.641,25.545,7.483,25.593S283.49,303.69,279.2,289.6,271.56,264.058,271.717,264.011Z" transform="translate(1620.384 366.468)"/><path class="h" d="M297.731,232.541c.024.113-2.056.425-5.183,1.634a30.866,30.866,0,0,0-17.861,17.986c-1.187,3.137-1.484,5.219-1.6,5.195a6.163,6.163,0,0,1,.171-1.462,26.117,26.117,0,0,1,1.031-3.878A29.6,29.6,0,0,1,292.4,233.781a26.074,26.074,0,0,1,3.87-1.059A6.142,6.142,0,0,1,297.731,232.541Z" transform="translate(1620.581 361.919)"/><path class="h" d="M192.551,253.873a4.053,4.053,0,0,1,.066.8c.019.581.046,1.339.077,2.282.042,2.051.1,4.9.171,8.391.087,7.147.2,16.905.336,27.686.063,10.785.12,20.545.161,27.692-.008,3.491-.014,6.341-.019,8.393l-.035,2.282a3.92,3.92,0,0,1-.053.8,4.057,4.057,0,0,1-.066-.8c-.019-.581-.046-1.338-.077-2.281-.042-2.051-.1-4.9-.171-8.39-.087-7.149-.2-16.908-.337-27.693-.063-10.781-.12-20.54-.161-27.688.008-3.492.014-6.342.018-8.393.015-.943.027-1.7.035-2.282A3.949,3.949,0,0,1,192.551,253.873Z" transform="translate(1608.93 365.003)"/><path class="i" d="M242.632,477.975a4.8,4.8,0,0,1-.237-.857c-.142-.624-.331-1.45-.567-2.485-.482-2.161-1.14-5.294-1.919-9.173-1.562-7.757-3.559-18.508-5.466-30.431s-3.352-22.767-4.285-30.626c-.467-3.929-.818-7.112-1.032-9.314l-.237-2.537a4.954,4.954,0,0,1-.041-.889,5.1,5.1,0,0,1,.161.876q.13.949.347,2.524c.3,2.256.712,5.413,1.22,9.288,1.039,7.842,2.555,18.664,4.456,30.584s3.836,22.671,5.291,30.446l1.734,9.206q.285,1.566.456,2.506A5.068,5.068,0,0,1,242.632,477.975Z" transform="translate(1614.189 384.914)"/><path class="h" d="M304.449,341.184c.011.164-12.894,1.148-28.82,2.2s-28.852,1.768-28.862,1.6,12.89-1.148,28.822-2.2S304.438,341.019,304.449,341.184Z" transform="translate(1616.78 377.616)"/><g transform="translate(1421.744 864.545)"><g transform="translate(0)"><path class="i" d="M769.763,468.823c0,.165-156.942.3-350.492.3-193.619,0-350.527-.133-350.527-.3s156.907-.3,350.527-.3C612.821,468.525,769.763,468.658,769.763,468.823Z" transform="translate(-68.744 -468.525)"/></g></g><g transform="translate(1601.826 468.636)"><g transform="translate(59.304 52.851)"><g transform="translate(0.001 0.001)"><path class="m" d="M557.728,184.78l81.118,35.145-.4,23.507,9.179,9.616-30.991,27.7-9.052-10.127-24.118-3.376Z" transform="translate(-557.728 -184.78)"/><g transform="translate(0)"><path class="i" d="M557.358,184.78c.712,2.306,10.5,34.005,25.48,82.546l.052.165.17.024,24.116,3.393-.175-.094,9.047,10.131.2.22.22-.2c5.076-4.534,10.4-9.294,15.822-14.138l15.17-13.562.227-.2-.211-.22-9.182-9.613.08.2c.132-8.134.259-15.986.38-23.507l0-.184-.168-.072L557.358,184.78l81.009,35.4-.165-.255c-.132,7.52-.269,15.372-.411,23.507l0,.119.082.086,9.174,9.62.017-.425-15.174,13.559-15.817,14.143.415.023-9.055-10.123-.071-.079-.105-.015-24.12-3.359.222.189C568.068,218.719,558.084,187.08,557.358,184.78Z" transform="translate(-557.358 -184.78)"/></g></g><path class="i" d="M591.352,237.766a12.725,12.725,0,1,0,1.007-17.967A12.725,12.725,0,0,0,591.352,237.766Z" transform="translate(-558.439 -180.187)"/><path class="i" d="M599.233,184.78c-.125.108,9.267,11.187,20.973,24.743s21.3,24.462,21.426,24.355-9.265-11.184-20.975-24.744S599.358,184.673,599.233,184.78Z" transform="translate(-599.232 -184.779)"/><path class="n" d="M593.115,455.069h0a20.283,20.283,0,0,0,1.682-28.554L442.28,253.939l-30.246,27.033L564.4,453.377A20.283,20.283,0,0,0,593.115,455.069Z" transform="translate(-343.233 -174.786)"/><rect class="o" width="16.575" height="47.705" transform="translate(65.896 108.784) rotate(-131.791)"/></g><g transform="translate(0)"><rect class="p" width="8.83" height="8.83" transform="matrix(-0.766, 0.642, -0.642, -0.766, 64.113, 53.836)"/><g transform="translate(1.899 2.613)"><path class="p" d="M584.451,236.891c.293.349,26.176-20.862,57.805-47.368s57.045-48.286,56.753-48.634-26.17,20.857-57.811,47.373S584.159,236.543,584.451,236.891Z" transform="translate(-584.449 -140.884)"/></g><path class="p" d="M682.245,226.258a2.617,2.617,0,1,0,.325-3.686A2.617,2.617,0,0,0,682.245,226.258Z" transform="translate(-681.634 -126.556)"/><path class="p" d="M582.775,142.9a2.617,2.617,0,1,0,.325-3.686A2.617,2.617,0,0,0,582.775,142.9Z" transform="translate(-468.321 -138.601)"/></g></g><g transform="translate(1725.781 622.056)"><g transform="translate(0)"><path class="k" d="M139.875,256.651l-11.1,4.435L126.4,270.03l3.824,14.92,8.966,9.511,6.049-5,.38-9.133.739-5.111s5.473-1.717,5.608-2.555-.679-3.645-1.519-3.78-6.58,2-6.58,2,6.795-5.378,6.6-6.242-.92-3.073-2.275-3.318-12.319,4.921-12.319,4.921l-1.78,4.058-1.553-6.49S142.283,261.08,139.875,256.651Z" transform="translate(-126.395 -256.651)"/></g><g transform="translate(14.453 14.115)"><path class="l" d="M139.446,275.841c-.065.021-.274-.385-.375-1.106a6.022,6.022,0,0,1,1.9-5.146c.547-.481.968-.654,1-.6a8.5,8.5,0,0,0-2.534,6.846Z" transform="translate(-139.023 -268.983)"/></g><g transform="translate(9.594 6.936)"><path class="l" d="M134.785,274.809a24.315,24.315,0,0,0,.439-2.909,12.66,12.66,0,0,1,.559-3.221,4.754,4.754,0,0,1,1.022-1.719,5.076,5.076,0,0,1,1.814-1.141c2.655-.962,5.045-1.742,6.795-2.307a15.3,15.3,0,0,1,2.867-.79,15.187,15.187,0,0,1-2.733,1.172c-1.7.659-4.11,1.513-6.714,2.457a4.624,4.624,0,0,0-1.626,1,4.345,4.345,0,0,0-.929,1.511,14.005,14.005,0,0,0-.651,3.084A5.965,5.965,0,0,1,134.785,274.809Z" transform="translate(-134.778 -262.711)"/></g><g transform="translate(6.955 12.743)"><path class="l" d="M132.57,272.07c-.156-.026-.124-1.006.071-2.188s.481-2.122.636-2.1.125,1.006-.071,2.188S132.727,272.1,132.57,272.07Z" transform="translate(-132.472 -267.786)"/></g></g><path class="k" d="M214.227,339.046c4.585,1.189,38.051,5.474,38.051,5.474V321.013s-8.623-3.684-11-5.827-18.788-9.444-18.788-9.444-2.22-.962-1.167,3.931c1.111,5.163,4.46,5.524,7.381,7.7,0,.022,1.59.722,1.594.744.017.106,2.074.494,2.123.956.295,2.322-.529,1.594-.529,1.594.169-.039-3.836-.7-4.575-.783-4.174-.493-22.707,6.115-22.707,7.783,0,0-1.1,2.561,4.126,2.274a62.315,62.315,0,0,1,11.715.835s-12.9-4.375-13.552,0,14.9,4.125,14.9,4.125S201.119,330.621,214.227,339.046Z" transform="translate(1610.673 372.487)"/></g></svg>