<svg xmlns="http://www.w3.org/2000/svg" width="2683" height="586.799" viewBox="0 0 2683 586.799"><defs><style>.a,.f{fill:none;}.a{stroke:#f0f0f0;stroke-width:12px;}.b{fill:#36c7ac;}.c{opacity:0.24;}.d{fill:#246f6a;}.e{stroke:none;}</style></defs><g transform="translate(381 -990.201)"><g class="a" transform="translate(-13.727 990.201) rotate(31)"><ellipse class="e" cx="60.5" cy="61" rx="60.5" ry="61"/><ellipse class="f" cx="60.5" cy="61" rx="54.5" ry="55"/></g><g class="a" transform="translate(1243.537 1030.368) rotate(31)"><ellipse class="e" cx="30.5" cy="31" rx="30.5" ry="31"/><ellipse class="f" cx="30.5" cy="31" rx="24.5" ry="25"/></g><rect class="b" width="2683" height="524" transform="translate(-381 1053)"/><g class="c" transform="translate(-80 -599)"><ellipse class="d" cx="10" cy="10.5" rx="10" ry="10.5" transform="translate(1864 1776) rotate(90)"/><circle class="d" cx="10" cy="10" r="10" transform="translate(1781 1776) rotate(90)"/><circle class="d" cx="10" cy="10" r="10" transform="translate(1905 1776) rotate(90)"/><ellipse class="d" cx="10" cy="10.5" rx="10" ry="10.5" transform="translate(1823 1776) rotate(90)"/><ellipse class="d" cx="10" cy="10.5" rx="10" ry="10.5" transform="translate(1741 1776) rotate(90)"/><circle class="d" cx="10.5" cy="10.5" r="10.5" transform="translate(1864 1807) rotate(90)"/><ellipse class="d" cx="10.5" cy="10" rx="10.5" ry="10" transform="translate(1781 1807) rotate(90)"/><ellipse class="d" cx="10.5" cy="10" rx="10.5" ry="10" transform="translate(1905 1807) rotate(90)"/><circle class="d" cx="10.5" cy="10.5" r="10.5" transform="translate(1823 1807) rotate(90)"/><circle class="d" cx="10.5" cy="10.5" r="10.5" transform="translate(1741 1807) rotate(90)"/><circle class="d" cx="10.5" cy="10.5" r="10.5" transform="translate(1864 1842) rotate(90)"/><ellipse class="d" cx="10.5" cy="10" rx="10.5" ry="10" transform="translate(1781 1842) rotate(90)"/><ellipse class="d" cx="10.5" cy="10" rx="10.5" ry="10" transform="translate(1905 1842) rotate(90)"/><circle class="d" cx="10.5" cy="10.5" r="10.5" transform="translate(1823 1842) rotate(90)"/><circle class="d" cx="10.5" cy="10.5" r="10.5" transform="translate(1741 1842) rotate(90)"/><ellipse class="d" cx="10" cy="10.5" rx="10" ry="10.5" transform="translate(1864 1874) rotate(90)"/><circle class="d" cx="10" cy="10" r="10" transform="translate(1781 1874) rotate(90)"/><circle class="d" cx="10" cy="10" r="10" transform="translate(1905 1874) rotate(90)"/><ellipse class="d" cx="10" cy="10.5" rx="10" ry="10.5" transform="translate(1823 1874) rotate(90)"/><ellipse class="d" cx="10" cy="10.5" rx="10" ry="10.5" transform="translate(1741 1874) rotate(90)"/><ellipse class="d" cx="10" cy="10.5" rx="10" ry="10.5" transform="translate(1946 1776) rotate(90)"/><circle class="d" cx="10.5" cy="10.5" r="10.5" transform="translate(1946 1807) rotate(90)"/><circle class="d" cx="10.5" cy="10.5" r="10.5" transform="translate(1946 1842) rotate(90)"/><ellipse class="d" cx="10" cy="10.5" rx="10" ry="10.5" transform="translate(1946 1874) rotate(90)"/></g><g class="c" transform="translate(-1772 -507)"><ellipse class="d" cx="10" cy="10.5" rx="10" ry="10.5" transform="translate(1864 1776) rotate(90)"/><circle class="d" cx="10" cy="10" r="10" transform="translate(1781 1776) rotate(90)"/><circle class="d" cx="10" cy="10" r="10" transform="translate(1905 1776) rotate(90)"/><ellipse class="d" cx="10" cy="10.5" rx="10" ry="10.5" transform="translate(1823 1776) rotate(90)"/><ellipse class="d" cx="10" cy="10.5" rx="10" ry="10.5" transform="translate(1741 1776) rotate(90)"/><circle class="d" cx="10.5" cy="10.5" r="10.5" transform="translate(1864 1807) rotate(90)"/><ellipse class="d" cx="10.5" cy="10" rx="10.5" ry="10" transform="translate(1781 1807) rotate(90)"/><ellipse class="d" cx="10.5" cy="10" rx="10.5" ry="10" transform="translate(1905 1807) rotate(90)"/><circle class="d" cx="10.5" cy="10.5" r="10.5" transform="translate(1823 1807) rotate(90)"/><circle class="d" cx="10.5" cy="10.5" r="10.5" transform="translate(1741 1807) rotate(90)"/><circle class="d" cx="10.5" cy="10.5" r="10.5" transform="translate(1864 1842) rotate(90)"/><ellipse class="d" cx="10.5" cy="10" rx="10.5" ry="10" transform="translate(1781 1842) rotate(90)"/><ellipse class="d" cx="10.5" cy="10" rx="10.5" ry="10" transform="translate(1905 1842) rotate(90)"/><circle class="d" cx="10.5" cy="10.5" r="10.5" transform="translate(1823 1842) rotate(90)"/><circle class="d" cx="10.5" cy="10.5" r="10.5" transform="translate(1741 1842) rotate(90)"/><ellipse class="d" cx="10" cy="10.5" rx="10" ry="10.5" transform="translate(1864 1874) rotate(90)"/><circle class="d" cx="10" cy="10" r="10" transform="translate(1781 1874) rotate(90)"/><circle class="d" cx="10" cy="10" r="10" transform="translate(1905 1874) rotate(90)"/><ellipse class="d" cx="10" cy="10.5" rx="10" ry="10.5" transform="translate(1823 1874) rotate(90)"/><ellipse class="d" cx="10" cy="10.5" rx="10" ry="10.5" transform="translate(1741 1874) rotate(90)"/><ellipse class="d" cx="10" cy="10.5" rx="10" ry="10.5" transform="translate(1946 1776) rotate(90)"/><circle class="d" cx="10.5" cy="10.5" r="10.5" transform="translate(1946 1807) rotate(90)"/><circle class="d" cx="10.5" cy="10.5" r="10.5" transform="translate(1946 1842) rotate(90)"/><ellipse class="d" cx="10" cy="10.5" rx="10" ry="10.5" transform="translate(1946 1874) rotate(90)"/></g></g></svg>