<svg xmlns="http://www.w3.org/2000/svg" width="511.116" height="530.04" viewBox="0 0 511.116 530.04"><defs><style>.a{fill:#fff;}.b{fill:#18b5b1;}.c{opacity:0.3;}.d{fill:#b8e8e7;}.e{fill:#e8505b;}.f{fill:#263238;}.g{fill:#ffbe9d;}.h{fill:#eb996e;}.i{fill:#455a64;}.j,.l{fill:#ffa5ab;}.j{opacity:0.78;}.k{fill:#fafafa;}.m{opacity:0.2;}.n,.p{opacity:0.4;}.o{fill:#e0e0e0;}</style></defs><g transform="translate(93.001 -407.865)"><g transform="translate(-93.001 459.865)"><g transform="translate(301.337 -52)"><g transform="translate(0.376 0.374)"><rect class="a" width="209.104" height="140.008"/></g><path class="b" d="M519.126,285.247s-.02-.875-.032-2.548l-.033-7.386c-.019-6.48-.043-15.986-.076-28.158-.037-24.324-.092-59.289-.158-101.916l.3.3-209.087.076h-.016l.374-.376c-.011,49.878-.022,97.309-.032,140.008l-.343-.344,150.646.17,43.039.092,11.448.042,2.955.02c.666.007,1.015.02,1.015.02s-.321.013-.974.02l-2.916.02-11.38.042-42.961.092-150.871.168h-.344v-.344c-.009-42.7-.02-90.13-.032-140.008v-.374h.391l209.087.075h.3l0,.3c-.065,42.705-.119,77.733-.157,102.1-.033,12.142-.059,21.625-.076,28.091-.014,3.207-.026,5.661-.033,7.33C519.148,284.414,519.126,285.247,519.126,285.247Z" transform="translate(-309.648 -144.865)"/><g transform="translate(0.376 12.494)"><path class="b" d="M309.909,153.92c0-.207,46.774-.374,104.461-.374,57.705,0,104.469.167,104.469.374s-46.764.374-104.469.374C356.683,154.294,309.909,154.127,309.909,153.92Z" transform="translate(-309.909 -153.546)"/></g><g transform="translate(5.274 4.889)"><g class="c"><path class="b" d="M316.664,149.939a1.676,1.676,0,1,1-1.677-1.677A1.676,1.676,0,0,1,316.664,149.939Z" transform="translate(-313.312 -148.262)"/></g><g class="c" transform="translate(5.743)"><path class="b" d="M320.653,149.939a1.675,1.675,0,1,1-1.675-1.677A1.675,1.675,0,0,1,320.653,149.939Z" transform="translate(-317.302 -148.262)"/></g><g class="c" transform="translate(11.402)"><path class="b" d="M324.586,149.939a1.676,1.676,0,1,1-1.675-1.677A1.675,1.675,0,0,1,324.586,149.939Z" transform="translate(-321.234 -148.262)"/></g></g><g class="c" transform="translate(18.352 27.469)"><rect class="b" width="55.778" height="55.778"/></g><g transform="translate(83.633 42.861)"><path class="d" d="M464.926,175.018c0,.207-21.753.376-48.583.376s-48.588-.168-48.588-.376,21.749-.374,48.588-.374S464.926,174.812,464.926,175.018Z" transform="translate(-367.755 -174.644)"/></g><g transform="translate(83.633 53.226)"><path class="d" d="M464.926,182.22c0,.207-21.753.374-48.583.374s-48.588-.167-48.588-.374,21.749-.374,48.588-.374S464.926,182.013,464.926,182.22Z" transform="translate(-367.755 -181.846)"/></g><g transform="translate(83.633 63.591)"><path class="d" d="M464.926,189.423c0,.206-21.753.374-48.583.374s-48.588-.168-48.588-.374,21.749-.376,48.588-.376S464.926,189.215,464.926,189.423Z" transform="translate(-367.755 -189.047)"/></g><g transform="translate(83.633 73.956)"><path class="d" d="M425.184,196.623a12.938,12.938,0,0,1-2.257.147l-6.153.118c-5.2.068-12.375.111-20.3.111s-15.111-.043-20.307-.111l-6.154-.118a12.927,12.927,0,0,1-2.255-.147,13.037,13.037,0,0,1,2.255-.145l6.154-.119c5.2-.068,12.375-.109,20.307-.109s15.105.042,20.3.109l6.153.119A13.048,13.048,0,0,1,425.184,196.623Z" transform="translate(-367.755 -196.249)"/></g><g class="c" transform="translate(21.842 102.053)"><rect class="b" width="26.213" height="26.213"/></g><g class="c" transform="translate(69.381 102.053)"><rect class="b" width="26.213" height="26.213"/></g><g class="c" transform="translate(116.919 102.053)"><rect class="b" width="26.213" height="26.213"/></g><g class="c" transform="translate(164.457 102.053)"><rect class="b" width="26.213" height="26.213"/></g></g><g transform="translate(0 50.518)"><g transform="translate(0.295 0.295)"><rect class="a" width="186.276" height="75.662"/></g><path class="b" d="M230.576,255.921s-.013-.465-.02-1.352-.013-2.208-.023-3.925c-.012-3.453-.029-8.525-.052-15.058-.026-13.059-.065-31.948-.112-55.328l.207.207-186.263.088H44.3l.3-.3c0,26.5-.009,52.072-.013,75.662l-.282-.282,133.556.134,38.744.078,10.369.036,2.684.017c.606.006.923.017.923.017s-.294.012-.887.019-1.493.009-2.651.017c-2.356.007-5.82.02-10.311.036l-38.679.078L44.3,256.2h-.282v-.283c0-23.59-.009-49.166-.013-75.662v-.3h.308l186.263.088h.209v.207c-.047,23.432-.085,42.365-.112,55.453-.022,6.514-.039,11.57-.05,15.012-.01,1.7-.017,3-.023,3.888S230.576,255.921,230.576,255.921Z" transform="translate(-44.005 -179.964)"/><g transform="translate(0.482 10.205)"><path class="b" d="M44.34,187.349c0-.164,41.636-.3,92.985-.3,51.367,0,93,.131,93,.3s-41.629.294-93,.294C85.976,187.643,44.34,187.512,44.34,187.349Z" transform="translate(-44.34 -187.054)"/></g><g transform="translate(5.576 4.583)"><g class="c"><path class="e" d="M50.583,184.5a1.352,1.352,0,1,1-1.351-1.353A1.353,1.353,0,0,1,50.583,184.5Z" transform="translate(-47.879 -183.148)"/></g><g class="c" transform="translate(4.633)"><path class="e" d="M53.8,184.5a1.351,1.351,0,1,1-1.351-1.353A1.352,1.352,0,0,1,53.8,184.5Z" transform="translate(-51.098 -183.148)"/></g><g class="c" transform="translate(9.198)"><path class="e" d="M56.974,184.5a1.352,1.352,0,1,1-1.353-1.353A1.353,1.353,0,0,1,56.974,184.5Z" transform="translate(-54.27 -183.148)"/></g></g><g class="c" transform="translate(16.126 22.797)"><rect class="e" width="44.993" height="44.993"/></g><g transform="translate(70.265 34.559)"><path class="b" d="M196.243,204.27c0,.163-23.154.3-51.708.3s-51.711-.132-51.711-.3,23.148-.3,51.711-.3S196.243,204.107,196.243,204.27Z" transform="translate(-92.824 -203.975)"/><g transform="translate(0 9.167)"><path class="b" d="M196.243,210.639c0,.163-23.154.3-51.708.3s-51.711-.132-51.711-.3,23.148-.3,51.711-.3S196.243,210.475,196.243,210.639Z" transform="translate(-92.824 -210.344)"/></g><g transform="translate(0 18.332)"><path class="b" d="M159.4,217.007a2.942,2.942,0,0,1-.676.059l-1.939.056-7.135.094-23.535.086-23.541-.086-7.133-.094-1.939-.056a2.942,2.942,0,0,1-.676-.059,2.942,2.942,0,0,1,.676-.059c.507-.016,1.149-.033,1.939-.056l7.133-.094,23.541-.086,23.535.086,7.135.094c.789.023,1.432.04,1.939.056A2.941,2.941,0,0,1,159.4,217.007Z" transform="translate(-92.824 -216.712)"/></g></g></g></g><g transform="translate(39.415 609)"><g transform="translate(0 0)"><g transform="translate(13.527)"><path class="f" d="M370.114,281.035a12.923,12.923,0,0,1-9.349-12.9c.161-2.59,1.125-5.11,1.014-7.7-.172-4.025-2.843-7.426-4.852-10.916s-3.358-8.094-1.015-11.371c1.519-2.125,4.2-3.084,6.041-4.938,1.8-1.816,2.656-4.332,3.621-6.7s2.215-4.812,4.437-6.077,5.63-.7,6.532,1.69" transform="translate(-354.674 -195.505)"/><path class="f" d="M297.894,221.684c-3.964-2.517-4.922-8.355-2.773-12.53s6.707-6.711,11.343-7.459a21.613,21.613,0,0,1,18.62,6.17c2.558,2.635,4.631,6.072,8.1,7.279,3.05,1.061,6.424.1,9.625.519,4.292.556,7.971,3.608,10.172,7.334s3.109,8.072,3.617,12.37c.467,3.945.776,8.274,3.512,11.152,2.668,2.808,6.884,3.4,10.2,5.4,6.244,3.758,8.267,13.066,4.148,19.077-1.314,1.916-3.2,3.674-3.352,5.992-.139,2.118,1.229,4,1.87,6.024,1.65,5.206-2.612,11.393-8.065,11.706-2.753.159-5.7-.915-8.171.316-2.451,1.223-3.363,4.178-4.931,6.424a11.786,11.786,0,0,1-14.372,3.712c-2.025-.993-3.937-2.632-6.187-2.48s-4.014,2.068-6.223,2.5c-2.893.56-5.64-1.571-7.36-3.964s-2.919-5.21-5.12-7.168c-2.882-2.563-6.932-3.2-10.579-4.453A29.843,29.843,0,0,1,285.119,247.8" transform="translate(-258.413 -201.437)"/><g transform="translate(25.115 16.806)"><path class="g" d="M313.531,222.783a6.339,6.339,0,0,0-5.656,6.44h0l3.781,85.588c.159,10.108,14.935,15.788,25.756,15.537h0c10.929-.254,11.282-5.614,11.419-15.231.228-16.066.209-22.1.214-22.006,0,0,13.806-2.324,16.628-20.349,1.4-8.964.92-23.655.136-35.662-.7-10.808-7.9-24.056-18.664-22.893Z" transform="translate(-307.873 -214.136)"/><g transform="translate(45.632 28.194)"><g transform="translate(3.727 4.352)"><path class="f" d="M316.051,240.811a2.311,2.311,0,0,1-2.223,2.337,2.211,2.211,0,0,1-2.386-2.079,2.312,2.312,0,0,1,2.221-2.337A2.211,2.211,0,0,1,316.051,240.811Z" transform="translate(-311.44 -238.728)"/></g><path class="f" d="M319.946,237.859c-.286.3-2.039-.99-4.526-.978-2.484-.023-4.306,1.26-4.576.957-.134-.135.157-.679.952-1.26a6.344,6.344,0,0,1,3.662-1.138,6.088,6.088,0,0,1,3.6,1.155C319.827,237.18,320.087,237.724,319.946,237.859Z" transform="translate(-310.813 -235.44)"/></g><g transform="translate(21.19 28.713)"><g transform="translate(3.383 3.833)"><path class="f" d="M334.78,240.811a2.311,2.311,0,0,1-2.223,2.337,2.211,2.211,0,0,1-2.386-2.079,2.311,2.311,0,0,1,2.221-2.337A2.211,2.211,0,0,1,334.78,240.811Z" transform="translate(-330.169 -238.728)"/></g><path class="f" d="M338.416,238.251c-.287.3-2.042-.99-4.527-.978-2.484-.024-4.306,1.26-4.576.955-.132-.134.155-.679.952-1.259a6.338,6.338,0,0,1,3.662-1.138,6.089,6.089,0,0,1,3.6,1.154C338.293,237.571,338.555,238.115,338.416,238.251Z" transform="translate(-329.281 -235.832)"/></g><g transform="translate(38.179 28.836)"><path class="f" d="M318.884,256.642c-.012-.142,1.534-.412,4.038-.737.635-.067,1.235-.195,1.342-.629a3.234,3.234,0,0,0-.429-1.881q-.9-2.3-1.889-4.832c-2.623-6.878-4.523-12.534-4.246-12.637s2.631,5.389,5.253,12.267c.631,1.7,1.236,3.313,1.81,4.86a3.685,3.685,0,0,1,.335,2.492,1.6,1.6,0,0,1-1.043.93,4.349,4.349,0,0,1-1.077.152C320.458,256.769,318.9,256.784,318.884,256.642Z" transform="translate(-317.674 -235.925)"/></g><g transform="translate(17.027 72.591)"><path class="h" d="M345.257,275.371a45.83,45.83,0,0,1-24.145-6.384s6.116,12.7,24.145,10.978Z" transform="translate(-321.112 -268.987)"/></g><g transform="translate(30.937 53.865)"><path class="e" d="M330.469,256.52a4.482,4.482,0,0,0-4.021-1.656,4.094,4.094,0,0,0-2.822,1.522,2.591,2.591,0,0,0-.191,2.964,3.005,3.005,0,0,0,3.261.817,9.408,9.408,0,0,0,3.175-1.9,2.755,2.755,0,0,0,.708-.737.83.83,0,0,0-.005-.925" transform="translate(-323.055 -254.838)"/></g><g transform="translate(31.675 51.289)"><path class="f" d="M322.387,252.891c.4-.024.416,2.675,2.73,4.586s5.187,1.607,5.208,1.984c.038.169-.639.527-1.853.562a6.722,6.722,0,0,1-4.349-1.5,5.856,5.856,0,0,1-2.116-3.845C321.9,253.545,322.2,252.877,322.387,252.891Z" transform="translate(-321.986 -252.891)"/></g><g transform="translate(20.088 24.922)"><path class="f" d="M339.806,234.821c-.243.676-2.726.361-5.643.72-2.925.3-5.275,1.159-5.663.553-.173-.29.236-.926,1.184-1.583a9.886,9.886,0,0,1,8.614-.97C339.371,233.97,339.912,234.5,339.806,234.821Z" transform="translate(-328.461 -232.968)"/></g><g transform="translate(45.367 20.853)"><path class="f" d="M319.963,232.459c-.435.565-2.151-.017-4.21-.04-2.059-.1-3.8.388-4.207-.2-.176-.286.1-.852.859-1.388a6.1,6.1,0,0,1,6.781.195C319.916,231.6,320.155,232.183,319.963,232.459Z" transform="translate(-311.495 -229.893)"/></g></g><path class="f" d="M370.28,217.033c-4.128-2.778-9.474-4.056-14.282-2.675s-8.79,5.712-8.953,10.609c-.1,3.183,1.269,6.567-.143,9.437-1.345,2.732-4.657,3.843-7.006,5.822a10.753,10.753,0,0,0-2.489,13c1.967,3.612,6.1,6.26,6.45,10.337.327,3.837-2.908,7.074-3.694,10.847-.87,4.161,1.435,8.466,4.737,11.227s7.472,4.281,11.55,5.749c3.18,1.145,6.587,2.307,9.889,1.558a10.123,10.123,0,0,0,7.411-8.451A13.775,13.775,0,0,0,370,273.616c-2.315-2.548-5.56-4.714-6.116-8.078-.867-5.239,5.377-9.546,4.992-14.84-.2-2.73-2.124-4.991-3.727-7.235s-3-5.069-2.017-7.632c1.278-3.331,5.656-4.2,8.3-6.642a8.09,8.09,0,0,0,2.21-8.195,8.342,8.342,0,0,0-6.532-5.569" transform="translate(-327.679 -197.44)"/><path class="f" d="M299.976,214.455a12.327,12.327,0,0,0,14.544,12.173c2.753-.5,5.769-1.9,8.152-.427,2.507,1.542,2.61,5.32,4.833,7.25,3.176,2.757,8.226.169,12.259,1.366,3.114.924,5.059,3.9,7.128,6.4s5.168,4.885,8.282,3.961a36.535,36.535,0,0,0-1.236-8.308,12.281,12.281,0,0,0-4.718-6.769,45.805,45.805,0,0,1-3.982-2.317c-2.585-2.087-3.184-5.718-4.78-8.633a13.507,13.507,0,0,0-10.292-6.827c-3.544-.363-7.2.7-10.652-.171-2.554-.643-4.784-2.3-7.373-2.792-5.038-.958-9.723,2.657-13.376,6.258" transform="translate(-259.313 -198.925)"/><g transform="translate(7.079 19.501)"><path class="i" d="M342.832,255.275a3.908,3.908,0,0,1-.4-2.078,5.231,5.231,0,0,1,3.628-4.145,26.782,26.782,0,0,1,3.961-1.067,11.593,11.593,0,0,0,4.486-1.849,6.32,6.32,0,0,0,2.334-4.82,50.839,50.839,0,0,0-.278-5.673,12.964,12.964,0,0,1,.142-2.773,5.92,5.92,0,0,1,1.063-2.365,9.054,9.054,0,0,1,4.338-2.489,19.53,19.53,0,0,0,4.418-1.9,15.547,15.547,0,0,0,6.439-7.794,10.517,10.517,0,0,0,.462-1.578,1.785,1.785,0,0,0,.081-.568c-.062-.017-.241.752-.791,2.046a16.038,16.038,0,0,1-3.286,4.9,16.261,16.261,0,0,1-7.524,4.3,9.57,9.57,0,0,0-4.661,2.667,6.558,6.558,0,0,0-1.21,2.657,13.477,13.477,0,0,0-.158,2.938,53.567,53.567,0,0,1,.292,5.6,5.689,5.689,0,0,1-2.051,4.365,11.214,11.214,0,0,1-4.228,1.793,25.842,25.842,0,0,0-4.015,1.173,6.33,6.33,0,0,0-2.792,2.1,4.8,4.8,0,0,0-.916,2.476,3.146,3.146,0,0,0,.326,1.633A1.266,1.266,0,0,0,342.832,255.275Z" transform="translate(-342.16 -216.173)"/></g><g transform="translate(40.585 3.75)"><path class="i" d="M357.478,270.369a1.14,1.14,0,0,0,.3-.139,2,2,0,0,0,.676-.682,3.639,3.639,0,0,0-.368-3.559,4.739,4.739,0,0,0-1.93-1.846,24.84,24.84,0,0,0-2.9-1.223,8.938,8.938,0,0,1-3.031-1.718,6.481,6.481,0,0,1-1.731-3.417c-.3-1.354-.393-2.831-.638-4.369a9.59,9.59,0,0,0-1.788-4.542c-2.1-2.766-5.537-4.235-8.1-6.828a12.483,12.483,0,0,1-2.815-4.772,32.846,32.846,0,0,1-1.274-5.77c-.557-3.958-1.118-8.395-3.784-12.017a8.778,8.778,0,0,0-5.437-3.512,19.075,19.075,0,0,0-6.274.158,22.786,22.786,0,0,1-5.863.343A7.631,7.631,0,0,1,307.726,214c-2.459-2.652-3.872-6.224-6.9-8.052a11.514,11.514,0,0,0-9.1-1.255,10.092,10.092,0,0,0-5.992,4.657,11.346,11.346,0,0,0-1.556,5.557,9.758,9.758,0,0,0,.576,3.605,6.037,6.037,0,0,0,.532,1.155c.034-.016-.159-.41-.4-1.2a10.239,10.239,0,0,1-.439-3.553,11.2,11.2,0,0,1,1.618-5.366,9.708,9.708,0,0,1,5.793-4.386,11.04,11.04,0,0,1,8.666,1.267A12.671,12.671,0,0,1,304,210.023a40.122,40.122,0,0,0,3.264,4.418,8.972,8.972,0,0,0,2.3,1.8,8.531,8.531,0,0,0,2.865.887,23.259,23.259,0,0,0,6.039-.327,18.581,18.581,0,0,1,6.049-.154,8.091,8.091,0,0,1,5.02,3.256,16.67,16.67,0,0,1,2.575,5.648,55.56,55.56,0,0,1,1.092,6.055,33.242,33.242,0,0,0,1.319,5.883,13.1,13.1,0,0,0,2.983,5c2.717,2.692,6.122,4.129,8.1,6.73a9.032,9.032,0,0,1,1.718,4.283c.255,1.5.359,2.988.688,4.39a6.922,6.922,0,0,0,1.9,3.627,9.266,9.266,0,0,0,3.2,1.76,25.207,25.207,0,0,1,2.88,1.151,4.489,4.489,0,0,1,1.854,1.7,3.527,3.527,0,0,1,.475,3.354A2.931,2.931,0,0,1,357.478,270.369Z" transform="translate(-284.177 -204.271)"/></g></g><g transform="translate(0 98.738)"><path class="e" d="M337.517,364.4l-31.963-2.93s-19.67-51.807-43.918-64.37l-15.706,27.436,33.622,63.174H345.2Z" transform="translate(-165.888 -269.236)"/><path class="j" d="M337.517,364.4l-31.963-2.93s-19.67-51.807-43.918-64.37l-15.706,27.436,33.622,63.174H345.2Z" transform="translate(-165.888 -269.236)"/><g transform="translate(153.006 99.789)"><path class="k" d="M267.261,361.451c.163-.1-1.043-2.415-2.693-5.177s-3.122-4.92-3.286-4.823,1.043,2.414,2.695,5.177S267.1,361.548,267.261,361.451Z" transform="translate(-261.267 -351.448)"/></g><g transform="translate(136.344 100.111)"><path class="k" d="M272.9,360.745c.148.119,1.9-1.81,3.905-4.308s3.516-4.621,3.368-4.74-1.9,1.809-3.905,4.309S272.747,360.625,272.9,360.745Z" transform="translate(-272.885 -351.691)"/></g><g transform="translate(132.078 88.903)"><path class="k" d="M281.444,351.6c.191,0,.344-1.877.344-4.19s-.154-4.191-.344-4.191-.344,1.875-.344,4.191S281.253,351.6,281.444,351.6Z" transform="translate(-281.1 -343.222)"/></g><g transform="translate(143.665 112.04)"><path class="k" d="M268.529,364.477c.1.159,1.473-.551,3.056-1.587s2.783-2,2.679-2.163-1.472.551-3.056,1.587S268.424,364.318,268.529,364.477Z" transform="translate(-268.522 -360.705)"/></g><g transform="translate(125.3 68.187)"><path class="k" d="M282.92,327.57c-.173.078.815,2.663,2.207,5.771s2.664,5.569,2.837,5.491-.815-2.661-2.209-5.773S283.093,327.492,282.92,327.57Z" transform="translate(-282.9 -327.569)"/></g><g transform="translate(112.357 47.177)"><path class="k" d="M292.347,311.711c-.115.152,1.028,1.211,2.552,2.366s2.853,1.969,2.968,1.817-1.027-1.211-2.552-2.366S292.462,311.561,292.347,311.711Z" transform="translate(-292.339 -311.693)"/></g><path class="l" d="M393.759,382.945l-16.483-66.577a22.648,22.648,0,0,0-26-16.846h0a22.646,22.646,0,0,0-18.362,25.759L343,390.351a32.555,32.555,0,0,0,27.011,26.34l13.1,2.045Z" transform="translate(-329.203 -268.57)"/><g transform="translate(12.605 22.736)"><path class="f" d="M347.127,297.14a14.876,14.876,0,0,1,5.88-2.955,15.677,15.677,0,0,1,7.095.049,19.248,19.248,0,0,1,7.713,4.022c4.832,4.05,7.46,9.312,9.247,13,.883,1.873,1.555,3.412,2.035,4.469a9.2,9.2,0,0,0,.8,1.619,8.955,8.955,0,0,0-.557-1.72c-.4-1.09-1.008-2.66-1.84-4.57a49.456,49.456,0,0,0-3.389-6.5,28.9,28.9,0,0,0-5.86-6.829,19.4,19.4,0,0,0-8.009-4.111,15.686,15.686,0,0,0-7.356.1,12.524,12.524,0,0,0-4.467,2.157,8.42,8.42,0,0,0-1,.905C347.212,297,347.11,297.123,347.127,297.14Z" transform="translate(-347.126 -293.225)"/></g><g transform="translate(105.994 41.631)"><path class="f" d="M284.948,307.5a3.193,3.193,0,0,0,.461.618l1.411,1.689c1.219,1.468,2.961,3.614,4.946,6.387a68.072,68.072,0,0,1,11.254,23.892c2.3,10.152,2.413,19.659,2.8,26.468.164,3.414.324,6.178.471,8.085.079.892.143,1.617.195,2.194a3.272,3.272,0,0,0,.115.762,3.178,3.178,0,0,0,.022-.77c-.016-.578-.038-1.307-.065-2.2-.062-2-.148-4.744-.251-8.09-.267-6.809-.3-16.351-2.619-26.6a65.787,65.787,0,0,0-11.532-24.024c-2.046-2.75-3.851-4.857-5.136-6.276-.637-.715-1.162-1.243-1.51-1.607A3.247,3.247,0,0,0,284.948,307.5Z" transform="translate(-284.946 -307.502)"/></g><path class="l" d="M284.479,317.533c1.808-11.9,8.384-14.763,15.193-18.47,2.227-1.211,12.96-3.966,21.47-6.041.813-5.157,2.27-14.386,2.59-16.335.449-2.737,43.35,4.107,43.893,5.134.361.68,1.349,11.371,1.973,18.5l10.271,3.59,13.406,17.044,6.977,9.908a53.4,53.4,0,0,1,8.642,19.022c1.69,7.59,1.923,14.993,1.923,23.054l2.073,43.707-89.763,25.382-6.949-44.275-23.157-31.523C291.043,353.478,282.254,332.171,284.479,317.533Z" transform="translate(-284.121 -276.045)"/><g transform="translate(76.919 5.018)"><path class="f" d="M321.618,300.465a13.891,13.891,0,0,0,.6-3.032c.281-1.885.622-4.492.957-7.377q.232-2.142.445-4.071a28.6,28.6,0,0,0,.237-3.365,4.039,4.039,0,0,0-.639-2.237c-.347-.45-.643-.572-.662-.543-.038.045.192.241.434.686a4.307,4.307,0,0,1,.38,2.1c-.024.917-.23,2.037-.381,3.289-.158,1.281-.324,2.639-.5,4.064-.334,2.885-.6,5.5-.756,7.4A13.8,13.8,0,0,0,321.618,300.465Z" transform="translate(-321.57 -279.837)"/></g><g transform="translate(65.498 3.206)"><path class="f" d="M330.155,298.2a10.37,10.37,0,0,0,.954-2.775,44.426,44.426,0,0,0,1.3-14.056,10.444,10.444,0,0,0-.43-2.9c-.213.017.176,4.468-.343,9.92C331.146,293.842,329.948,298.147,330.155,298.2Z" transform="translate(-330.131 -278.468)"/></g><g transform="translate(43.417 0.594)"><path class="f" d="M346.28,295.746c.228-.024-.724-4.472.245-9.871.905-5.413,3.3-9.281,3.092-9.379a8.92,8.92,0,0,0-1.572,2.491,25.068,25.068,0,0,0-2.407,13.884A8.912,8.912,0,0,0,346.28,295.746Z" transform="translate(-345.476 -276.494)"/></g><g transform="translate(97.294 48.276)"><path class="k" d="M309.821,323.022c.156-.1-1.33-2.654-3.515-5.561s-4.215-5.054-4.357-4.932,1.64,2.454,3.8,5.345S309.658,323.129,309.821,323.022Z" transform="translate(-301.94 -312.523)"/></g><g transform="translate(84.945 33.702)"><path class="k" d="M312.249,310.138c.152.116,1.75-1.72,3.569-4.1s3.172-4.406,3.021-4.521-1.748,1.72-3.569,4.1S312.1,310.023,312.249,310.138Z" transform="translate(-312.237 -301.511)"/></g><g transform="translate(63.82 31.987)"><path class="k" d="M326.692,300.224c-.124.151,1.858,1.963,4.222,4.271s4.231,4.239,4.381,4.111-1.5-2.276-3.9-4.6S326.807,300.08,326.692,300.224Z" transform="translate(-326.687 -300.215)"/></g><g transform="translate(69.751 13.831)"><path class="k" d="M324.074,292.066c.128.14,1.605-.99,3.3-2.524s2.966-2.893,2.837-3.035-1.605.989-3.3,2.524S323.947,291.925,324.074,292.066Z" transform="translate(-324.065 -286.496)"/></g><g transform="translate(51.246 9.468)"><path class="k" d="M335.857,283.257c-.04.185,1.955.77,4.455,1.306s4.559.818,4.6.633-1.955-.772-4.455-1.308S335.9,283.07,335.857,283.257Z" transform="translate(-335.857 -283.2)"/></g><g transform="translate(47.361 29.573)"><path class="k" d="M345.187,307.654c.191.009.45-2.057.578-4.613s.081-4.64-.11-4.649-.449,2.055-.578,4.613S345,307.644,345.187,307.654Z" transform="translate(-345.005 -298.391)"/></g><g transform="translate(54.268 41.989)"><path class="k" d="M337.388,318.716c.179.065,1.216-2.332,2.317-5.352s1.85-5.524,1.67-5.59-1.216,2.332-2.317,5.353S337.208,318.652,337.388,318.716Z" transform="translate(-337.362 -307.773)"/></g><g transform="translate(72.607 51.413)"><path class="k" d="M323.183,326.35c.177.069,1.317-2.44,2.546-5.6s2.082-5.783,1.9-5.852-1.318,2.439-2.548,5.6S323.005,326.281,323.183,326.35Z" transform="translate(-323.159 -314.894)"/></g><g transform="translate(89.844 62.903)"><path class="k" d="M311.771,334.805c.187.038.852-2.444,1.488-5.545s1-5.646.811-5.684-.852,2.444-1.486,5.545S311.584,334.767,311.771,334.805Z" transform="translate(-311.722 -323.576)"/></g><g transform="translate(110.38 64.469)"><path class="k" d="M294.284,334.873c.171.083,1.412-2.114,2.773-4.9s2.324-5.123,2.153-5.206-1.413,2.112-2.773,4.9S294.113,334.789,294.284,334.873Z" transform="translate(-294.264 -324.759)"/></g><g transform="translate(110.839 87.712)"><path class="k" d="M289.315,342.339c-.085.171,2.323,1.531,5.374,3.04s5.6,2.591,5.68,2.421-2.321-1.531-5.374-3.039S289.4,342.169,289.315,342.339Z" transform="translate(-289.312 -342.322)"/></g><g transform="translate(110.555 98.607)"><path class="k" d="M295.845,360.481c.172.066,1.134-2.053,1.869-4.817s.961-5.081.778-5.108-.713,2.2-1.445,4.931S295.661,360.412,295.845,360.481Z" transform="translate(-295.814 -350.555)"/></g><g transform="translate(114.821 115.655)"><path class="k" d="M288.478,370.928c.13.14,2.063-1.42,4.321-3.486s3.985-3.856,3.857-4-2.063,1.421-4.321,3.487S288.349,370.788,288.478,370.928Z" transform="translate(-288.471 -363.436)"/></g><g transform="translate(87.807 113.146)"><path class="k" d="M305.322,361.57c-.05.2,2.988,1.065,6.535,2.63,3.556,1.547,6.255,3.194,6.366,3.021.1-.143-2.468-2.076-6.089-3.653C308.522,361.977,305.357,361.4,305.322,361.57Z" transform="translate(-305.322 -361.541)"/></g><g transform="translate(95.678 96.638)"><path class="k" d="M306.663,358.357c.179.064,1.049-1.965,1.943-4.53s1.472-4.7,1.293-4.759-1.051,1.967-1.944,4.531S306.483,358.3,306.663,358.357Z" transform="translate(-306.631 -349.067)"/></g><g transform="translate(79.668 88.035)"><path class="k" d="M315.3,342.569c-.16.1,1.461,2.965,3.623,6.395s4.046,6.129,4.206,6.027-1.461-2.965-3.624-6.395S315.462,342.467,315.3,342.569Z" transform="translate(-315.29 -342.566)"/></g><g transform="translate(62.45 77.033)"><path class="k" d="M328.459,346.974c.144.111,2.28-2.471,4.4-6.01s3.4-6.636,3.232-6.71-1.718,2.856-3.823,6.355S328.3,346.855,328.459,346.974Z" transform="translate(-328.449 -334.253)"/></g><g transform="translate(52.142 72.69)"><path class="k" d="M334.359,331.04c-.037.179,2.2.76,5.038.895s5.12-.209,5.1-.392-2.284-.152-5.069-.3S334.394,330.845,334.359,331.04Z" transform="translate(-334.359 -330.971)"/></g><g transform="translate(27.647 53.38)"><path class="k" d="M350.5,316.4c-.081.172,2.823,1.727,6.487,3.473s6.7,3.023,6.783,2.851-2.822-1.727-6.486-3.473S350.584,316.225,350.5,316.4Z" transform="translate(-350.501 -316.38)"/></g><g transform="translate(20.743 30.476)"><path class="k" d="M367.022,309.68c.171-.085-.868-2.528-2.32-5.455s-2.767-5.234-2.938-5.149.868,2.526,2.321,5.455S366.851,309.765,367.022,309.68Z" transform="translate(-361.746 -299.073)"/></g><g transform="translate(10.414 38.629)"><path class="k" d="M370.679,317.35c.191.044.963-2.688,2.01-6.02s1.961-6.022,1.78-6.094-1.388,2.521-2.438,5.888S370.5,317.31,370.679,317.35Z" transform="translate(-370.642 -305.234)"/></g><g transform="translate(8.013 63.53)"><path class="k" d="M366.359,324.077c-.065.171,2.489,1.277,5.807,2.123s6.086,1.113,6.113.932-2.664-.754-5.942-1.6S366.427,323.891,366.359,324.077Z" transform="translate(-366.358 -324.05)"/></g><g transform="translate(33.434 64.642)"><path class="k" d="M356.431,339.45c.2-.04-.368-3.261-.528-7.271-.18-4.009.111-7.266-.091-7.289-.173-.03-.779,3.24-.6,7.318C355.379,336.287,356.261,339.5,356.431,339.45Z" transform="translate(-355.181 -324.89)"/></g><g transform="translate(39.997 84.929)"><path class="k" d="M344.691,350.589c.122.134,2.45-1.842,4.841-4.734s3.915-5.537,3.761-5.633-1.919,2.344-4.292,5.192S344.553,350.445,344.691,350.589Z" transform="translate(-344.685 -340.219)"/></g><g transform="translate(13.255 91.89)"><path class="k" d="M362.863,345.5c-.074.175,2.4,1.374,5.519,2.677s5.712,2.218,5.785,2.043-2.4-1.375-5.519-2.679S362.936,345.324,362.863,345.5Z" transform="translate(-362.862 -345.479)"/></g><g transform="translate(22.414 107.651)"><path class="k" d="M364.376,371.946c.191,0,.312-3.262.273-7.283s-.228-7.278-.418-7.275-.312,3.261-.271,7.283S364.187,371.948,364.376,371.946Z" transform="translate(-363.951 -357.388)"/></g><g transform="translate(39.681 105.837)"><path class="k" d="M352.3,370.65c.18-.024-.151-3.416-1.175-7.481s-2.324-7.214-2.495-7.15c-.187.066.821,3.287,1.825,7.318S352.107,370.679,352.3,370.65Z" transform="translate(-348.612 -356.017)"/></g><g transform="translate(42.427 128.319)"><path class="k" d="M338.319,373.106c-.011.2,3.289.515,7.311,1.184s7.25,1.42,7.3,1.228c.052-.173-3.123-1.243-7.192-1.908S338.325,372.924,338.319,373.106Z" transform="translate(-338.319 -373.005)"/></g><g transform="translate(56.787 114.677)"><path class="k" d="M340.547,371.342c.136-.132-1.62-2.173-3.924-4.558s-4.283-4.212-4.42-4.08,1.62,2.173,3.924,4.559S340.411,371.474,340.547,371.342Z" transform="translate(-332.195 -362.697)"/></g><g transform="translate(79.798 127.294)"><path class="k" d="M318.372,382.57c.2.037.783-2.344,1.788-5.179s2.026-5.065,1.85-5.157c-.158-.09-1.486,2.03-2.5,4.928S318.194,382.541,318.372,382.57Z" transform="translate(-318.323 -372.231)"/></g><g transform="translate(56.103 140.023)"><path class="k" d="M329.205,387.636c.078.173,3.05-.977,6.64-2.57s6.437-3.025,6.359-3.2-3.049.977-6.64,2.57S329.129,387.463,329.205,387.636Z" transform="translate(-329.204 -381.849)"/></g><g transform="translate(94.311 133.943)"><path class="k" d="M310.909,386.723c.18-.06-.377-2.227-1.245-4.841s-1.718-4.685-1.9-4.625.377,2.229,1.245,4.842S310.729,386.782,310.909,386.723Z" transform="translate(-307.73 -377.255)"/></g><g transform="translate(70.223 146.617)"><path class="k" d="M315.526,388.24c.038.2,3.8-.409,8.482-.648,4.68-.258,8.486-.052,8.5-.255.021-.175-3.8-.694-8.539-.433C319.234,387.147,315.488,388.068,315.526,388.24Z" transform="translate(-315.526 -386.832)"/></g><g transform="translate(47.496 55.297)"><path class="f" d="M349.673,371.532a1.559,1.559,0,0,0,.036-.521,4.906,4.906,0,0,0-.213-1.5,3.323,3.323,0,0,0-1.439-1.969,4.623,4.623,0,0,0-3.23-.533l.27.158c-1.449-5.075-3.763-12.49-6.078-20.8-2.169-7.779-3.632-14.944-4.659-20.138l-1.212-6.154a14.869,14.869,0,0,0-.523-2.243,14.572,14.572,0,0,0,.259,2.289c.208,1.468.545,3.585,1,6.2a207.18,207.18,0,0,0,4.473,20.231c2.321,8.331,4.718,15.717,6.3,20.751l.062.2.209-.038a4.294,4.294,0,0,1,2.942.393,3.1,3.1,0,0,1,1.388,1.74A18.332,18.332,0,0,1,349.673,371.532Z" transform="translate(-332.613 -317.829)"/></g><g transform="translate(34.874 104.447)"><path class="f" d="M335.989,377.928c.112.052.926-1.74,2.61-4.411a45.5,45.5,0,0,1,18-16.363c2.819-1.421,4.681-2.061,4.639-2.178a5.371,5.371,0,0,0-1.341.352,29.817,29.817,0,0,0-3.511,1.387,41.245,41.245,0,0,0-18.208,16.548,30.055,30.055,0,0,0-1.716,3.363A5.348,5.348,0,0,0,335.989,377.928Z" transform="translate(-335.982 -354.967)"/></g><g class="m" transform="translate(34.185 103.482)"><path d="M361.469,354.238c-5.061.364-9.206.745-13.957,2.526s-9.142,5.189-10.889,9.952c-.419,1.142-.618,2.583.248,3.438a2.45,2.45,0,0,0,2.508.4,6.636,6.636,0,0,0,2.192-1.507c2.918-2.7,5.941-5.082,8.953-7.675s7.387-5.32,11.317-5.921" transform="translate(-336.265 -354.238)"/></g><g transform="translate(68.929 85.76)"><path class="f" d="M302.338,350.128a6.131,6.131,0,0,0,1.38.8,24.039,24.039,0,0,0,4.071,1.535,27.188,27.188,0,0,0,26.648-6.92,24.126,24.126,0,0,0,2.81-3.323,6.108,6.108,0,0,0,.818-1.368c-.111-.083-1.315,1.859-3.965,4.339a28.042,28.042,0,0,1-26.187,6.8C304.392,351.113,302.394,350,302.338,350.128Z" transform="translate(-302.338 -340.847)"/></g><g class="m" transform="translate(74.926 86.784)"><path d="M331.9,341.621c-2.227,4.846-4.845,9.722-9.071,12.976-2.436,1.875-5.284,3.453-8.359,3.5-4.418.073-8.212-2.941-11.583-5.8,10.92,1.71,23.227-3.244,29.012-10.683" transform="translate(-302.883 -341.621)"/></g><g transform="translate(54.589 1.837)"><path class="f" d="M338.8,297.526c.21-.012-.044-4.545.5-10.09.518-5.549,1.627-9.951,1.423-10a10.878,10.878,0,0,0-.918,2.839,50.986,50.986,0,0,0-1.368,14.292A10.92,10.92,0,0,0,338.8,297.526Z" transform="translate(-338.382 -277.434)"/></g></g><g transform="translate(197.612 297.774)"><path class="e" d="M182.967,426.44s14.384,3.109,27.225,1.183c12.039-1.805,39,.062,38.987,15.93-.012,17.7-35.957,13.324-49.983,10.519s-27.99-5.347-27.99-5.347Z" transform="translate(-171.206 -426.44)"/><g transform="translate(44.004 10.202)"><path class="f" d="M194.736,446.618c.185.042.963-2.716,1.738-6.159s1.251-6.268,1.065-6.31-.963,2.716-1.738,6.159S194.551,446.577,194.736,446.618Z" transform="translate(-194.696 -434.149)"/></g><g transform="translate(39.073 10.181)"><path class="f" d="M199.248,446.857c.189.026.732-2.8,1.214-6.314s.72-6.384.532-6.409-.732,2.8-1.214,6.315S199.06,446.831,199.248,446.857Z" transform="translate(-199.183 -434.133)"/></g><g transform="translate(34.318 9.936)"><path class="f" d="M203.137,445.066c.189.024.643-2.447,1.014-5.517s.517-5.578.328-5.6-.643,2.447-1.014,5.519S202.949,445.044,203.137,445.066Z" transform="translate(-203.055 -433.948)"/></g><g transform="translate(26.93 9.402)"><path class="f" d="M207.915,443.341c.167.071,1.188-1.992,1.85-4.738s.709-5.048.528-5.059c-.2-.019-.54,2.209-1.2,4.9S207.731,443.267,207.915,443.341Z" transform="translate(-207.885 -433.544)"/></g><g transform="translate(15.906 1.629)"><path class="f" d="M220.4,438.772a6.182,6.182,0,0,0-1.879-.126,15.946,15.946,0,0,0-5.05.989,5.623,5.623,0,0,0-1.555.838,2.36,2.36,0,0,0-.974,1.753,2.66,2.66,0,0,0,3.257,2.366,6.7,6.7,0,0,0,3.755-2.673,11.42,11.42,0,0,0,2.124-4.424,11.236,11.236,0,0,0-1.583-9.163,1.827,1.827,0,0,0-1.068-.643,1.45,1.45,0,0,0-1.2.373,3.216,3.216,0,0,0-.9,1.931,9.82,9.82,0,0,0,.189,3.6,10,10,0,0,0,2.427,4.538,7.838,7.838,0,0,0,1.049.932c.263.184.406.27.421.251.04-.049-.5-.451-1.269-1.36A10.336,10.336,0,0,1,216,433.485a9.5,9.5,0,0,1-.1-3.408,2.683,2.683,0,0,1,.734-1.559.922.922,0,0,1,1.388.232,11.223,11.223,0,0,1-.6,12.754,6.15,6.15,0,0,1-3.335,2.464,2.08,2.08,0,0,1-2.573-1.728,1.824,1.824,0,0,1,.74-1.357,5.211,5.211,0,0,1,1.394-.794,17.523,17.523,0,0,1,4.89-1.174C219.73,438.805,220.4,438.828,220.4,438.772Z" transform="translate(-210.942 -427.671)"/></g><g transform="translate(1.423 0.314)"><path class="f" d="M172.915,446.307a1.558,1.558,0,0,0,.363.115l1.079.269,4.17.95c3.629.8,8.891,1.918,15.428,3.18s14.35,2.688,23.106,3.88a62.4,62.4,0,0,0,13.883.692,29.827,29.827,0,0,0,7.271-1.39,19.968,19.968,0,0,0,3.49-1.551,10.776,10.776,0,0,0,3.065-2.468l-.053.058a7.3,7.3,0,0,0,1.251-1.5,9.36,9.36,0,0,0,.732-7.745,12.38,12.38,0,0,0-4.611-6.028,23.435,23.435,0,0,0-6.555-3.248c-1.147-.326-2.264-.719-3.4-.977-1.142-.228-2.258-.531-3.384-.687-9.015-1.423-17.215-.7-24.027-.7-3.416.064-6.5-.029-9.2-.195a61.621,61.621,0,0,1-6.887-.871l-2.48-.521-1.787-.509-1.1-.3a1.758,1.758,0,0,0-.384-.082,1.6,1.6,0,0,0,.361.148l1.085.369c.495.161,1.087.352,1.776.576l2.479.585a57.553,57.553,0,0,0,6.911.993c2.714.2,5.815.331,9.236.3,6.828.057,15.022-.607,23.918.836,1.113.157,2.21.462,3.336.688,1.12.258,2.215.65,3.343.971a22.817,22.817,0,0,1,6.364,3.168,11.722,11.722,0,0,1,4.361,5.695,8.7,8.7,0,0,1-.662,7.168,6.641,6.641,0,0,1-1.128,1.354l-.022.023-.03.038a10.316,10.316,0,0,1-2.843,2.267,19.379,19.379,0,0,1-3.364,1.5,29.317,29.317,0,0,1-7.109,1.368,62.321,62.321,0,0,1-13.745-.647c-8.74-1.154-16.552-2.538-23.1-3.728s-11.819-2.249-15.463-2.967l-4.2-.824-1.093-.2A1.664,1.664,0,0,0,172.915,446.307Z" transform="translate(-172.915 -426.677)"/></g><g transform="translate(53.871 3.562)"><path class="f" d="M186.92,454.035a23.794,23.794,0,0,0,.348-3.675c.163-2.27.433-5.4.892-8.833s1.024-6.526,1.464-8.757a23.606,23.606,0,0,0,.631-3.638,16.766,16.766,0,0,0-1.106,3.531,81.057,81.057,0,0,0-2.368,17.674A16.728,16.728,0,0,0,186.92,454.035Z" transform="translate(-186.772 -429.132)"/></g><path class="n" d="M234.08,427.206l-9.115,22.829-7.073-1.31,13.546-22.285Z" transform="translate(-217.892 -426.44)"/></g><path class="f" d="M171.493,389.015c1.466.488,95.66-25.907,133.752-36.618a36.182,36.182,0,0,1,29.458,4.459l.459.3a36.189,36.189,0,0,1,15.582,38.58h0a36.171,36.171,0,0,1-16.335,22.65c-25.12,15.389-78.28,47.765-79.907,47.135-2.129-.826-68.52-2.548-68.52-2.548l79.87-57.442-38,24.557-56.362-41.071Z" transform="translate(-76.482 -153.05)"/><path class="g" d="M369.264,360.608,349.24,350.25l-19.634,12.309-73.515,2.4-10.64,35.789,106.4-24.666s19.367,1.714,20.817-2.639S369.264,360.608,369.264,360.608Z" transform="translate(-193.906 -153.308)"/><path class="f" d="M364.151,407.96l9.9,32.5-1.231,9.9h0a50.851,50.851,0,0,1-67.071,4.521h0a49.832,49.832,0,0,1-19.485-39.746l.148-33.958Z" transform="translate(-248.109 -143.304)"/><g transform="translate(172.963 226.898)"><path class="i" d="M210.739,410.854c.114.153,11.6-8.223,25.657-18.705s25.362-19.109,25.248-19.261-11.6,8.221-25.66,18.708S210.625,410.7,210.739,410.854Z" transform="translate(-210.738 -372.885)"/></g><g transform="translate(155.998 203.414)"><path class="h" d="M247.379,355.157c-.058.181,4.328,1.748,9.795,3.5s9.945,3.024,10,2.843-4.326-1.748-9.795-3.5S247.437,354.976,247.379,355.157Z" transform="translate(-247.379 -355.14)"/></g><g transform="translate(154.497 209.485)"><path class="h" d="M246.091,359.776a20.937,20.937,0,0,0,3.41.641c2.108.344,5.012.862,8.184,1.589s6.011,1.533,8.058,2.145a20.739,20.739,0,0,0,3.347.912,14.959,14.959,0,0,0-3.195-1.375,71.949,71.949,0,0,0-16.33-3.755A14.966,14.966,0,0,0,246.091,359.776Z" transform="translate(-246.091 -359.728)"/></g><g transform="translate(156.162 215.107)"><path class="h" d="M245.43,364c-.037.187,4.9,1.323,11.031,2.538s11.13,2.05,11.167,1.862-4.9-1.322-11.032-2.538S245.467,363.815,245.43,364Z" transform="translate(-245.43 -363.975)"/></g><g transform="translate(109.153 158.039)"><path class="i" d="M244.041,322.1l-18.47,60.773a1.762,1.762,0,0,1-1.552,1.244L173.688,387.9a1.759,1.759,0,0,0-1.628,1.755v3.142a1.76,1.76,0,0,0,1.793,1.76l137.584-2.585a1.764,1.764,0,0,0,1.612-1.133l24.195-63.389a1.759,1.759,0,0,0-1.562-2.386l-89.875-4.2A1.759,1.759,0,0,0,244.041,322.1Z" transform="translate(-172.06 -320.855)"/><path class="o" d="M216.982,341.655a4.341,4.341,0,0,1,2.722,3.091,4.165,4.165,0,0,1-1.779,3.786,4.524,4.524,0,0,1-5.029.188,4.192,4.192,0,0,1-1.372-5.079c.607-1.678,3.679-2.852,5.458-1.986" transform="translate(-106.231 -314.222)"/></g><g transform="translate(37.609 202.573)"><path class="f" d="M381.756,471.991,396.3,448.067,289.363,364.259a42.966,42.966,0,0,0-23.356-9.572h0a42.97,42.97,0,0,0-46.718,46.37L221,421.5l70.981,22.809Z" transform="translate(-219.136 -354.505)"/><g transform="translate(25.487 60.684)"><path class="i" d="M230.124,400.359a1.612,1.612,0,0,0,.283.263l.873.72,3.405,2.718q1.122.883,2.473,1.952c.9.716,1.965,1.379,3.064,2.155l3.552,2.435c.631.427,1.271.883,1.947,1.319l2.123,1.278c2.906,1.734,6.041,3.721,9.6,5.517,1.763.922,3.561,1.928,5.462,2.868l5.909,2.8c8.14,3.711,17.259,7.444,27.034,10.767,19.532,6.731,37.591,11.576,50.523,15.5,3.244.954,6.166,1.846,8.725,2.656,2.565.793,4.775,1.476,6.563,2.084l4.14,1.345c.446.136.8.247,1.083.333a1.583,1.583,0,0,0,.377.091A1.6,1.6,0,0,0,366.9,457l-1.06-.4-4.1-1.469c-1.777-.647-3.976-1.368-6.531-2.2-2.55-.846-5.466-1.772-8.7-2.755-12.906-4.043-30.942-8.962-50.44-15.683-9.759-3.318-18.86-7.023-27-10.693l-5.905-2.767c-1.9-.928-3.7-1.92-5.462-2.828-3.557-1.769-6.7-3.725-9.612-5.429q-1.09-.643-2.129-1.255c-.678-.427-1.32-.876-1.955-1.294l-3.572-2.385c-1.106-.758-2.178-1.405-3.09-2.1s-1.747-1.326-2.5-1.9c-1.48-1.112-2.644-1.987-3.481-2.612l-.916-.667A1.63,1.63,0,0,0,230.124,400.359Z" transform="translate(-230.124 -400.358)"/></g><g transform="translate(22.893 71.859)"><path class="i" d="M313.065,408.814a4.139,4.139,0,0,0,1.079.565c.711.326,1.758.752,3.068,1.239a78.184,78.184,0,0,0,21.3,4.576c1.394.094,2.524.135,3.306.13a4.167,4.167,0,0,0,1.215-.071,40.606,40.606,0,0,0-4.476-.544c-2.762-.308-6.565-.844-10.709-1.731s-7.827-1.967-10.472-2.82A40.814,40.814,0,0,0,313.065,408.814Z" transform="translate(-313.064 -408.803)"/></g><g transform="translate(74.506 13.773)"><path class="i" d="M219.136,364.913c-.116.15,22.771,18.135,51.113,40.163s51.424,39.774,51.542,39.625-22.766-18.131-51.119-40.169S219.253,364.762,219.136,364.913Z" transform="translate(-219.136 -364.912)"/></g><g transform="translate(75.567 90.873)"><path class="e" d="M244.7,435.006c5.13-2.736,10.888-1.118,15.8.536,3.268,1.1,6.662,2.845,9.98,1.911,2.4-.676,4.183-2.62,6.016-4.31a37.814,37.814,0,0,1,27.641-9.9,11.257,11.257,0,0,1,7.591,3.432c5.038,5.456,1.239,12.558-3.264,17.146a49.746,49.746,0,0,1-30.059,14.5c-9.382.979-22.282-.316-31.8-4.39-5.865-2.512-8.876-9.432-5.8-15.021A9.638,9.638,0,0,1,244.7,435.006Z" transform="translate(-239.581 -423.17)"/><g class="p" transform="translate(0.267 4.366)"><path d="M244.647,438.306c5.13-2.735,10.888-1.118,15.8.536,3.266,1.1,6.661,2.845,9.979,1.911,2.4-.676,4.185-2.62,6.016-4.31a37.819,37.819,0,0,1,27.642-9.9,11.261,11.261,0,0,1,7.591,3.433,8.754,8.754,0,0,1,2.115,3.825,19.95,19.95,0,0,1-5.378,8.954,49.75,49.75,0,0,1-30.06,14.5c-9.382.979-22.283-.316-31.8-4.39a11.6,11.6,0,0,1-6.768-8.066,9.8,9.8,0,0,1,.97-2.587A9.636,9.636,0,0,1,244.647,438.306Z" transform="translate(-239.783 -426.469)"/></g><g transform="translate(0.259 4.108)"><path class="f" d="M239.58,444.858a8.911,8.911,0,0,1,1.257-3.039,9.949,9.949,0,0,1,2.745-2.684,10.965,10.965,0,0,1,4.715-1.805c3.809-.447,8.221,1.155,13.123,2.483,2.423.641,5.07,1.623,7.967,1.259a10.561,10.561,0,0,0,4.1-1.419A25.475,25.475,0,0,0,277.009,437a38.351,38.351,0,0,1,21.007-9.956,21.963,21.963,0,0,1,6.208-.036,13.526,13.526,0,0,1,4.8,1.675,12.248,12.248,0,0,1,2.942,2.493,29.793,29.793,0,0,1,1.894,2.734,10.642,10.642,0,0,0-1.687-2.9,12.019,12.019,0,0,0-2.947-2.651,13.725,13.725,0,0,0-4.924-1.829,22.115,22.115,0,0,0-6.356-.049,36.554,36.554,0,0,0-7.111,1.584,41.151,41.151,0,0,0-7.364,3.25,30.678,30.678,0,0,0-3.584,2.333c-1.141.895-2.222,1.877-3.33,2.832a25.246,25.246,0,0,1-3.422,2.586A9.91,9.91,0,0,1,269.3,440.4c-2.684.355-5.258-.563-7.716-1.2-4.879-1.278-9.368-2.876-13.351-2.353a11.034,11.034,0,0,0-7.624,4.826,7.12,7.12,0,0,0-.949,2.316A3.257,3.257,0,0,0,239.58,444.858Z" transform="translate(-239.572 -426.274)"/></g><g transform="translate(0.259 4.108)"><path class="f" d="M239.58,444.858a8.911,8.911,0,0,1,1.257-3.039,9.949,9.949,0,0,1,2.745-2.684,10.965,10.965,0,0,1,4.715-1.805c3.809-.447,8.221,1.155,13.123,2.483,2.423.641,5.07,1.623,7.967,1.259a10.561,10.561,0,0,0,4.1-1.419A25.475,25.475,0,0,0,277.009,437a38.351,38.351,0,0,1,21.007-9.956,21.963,21.963,0,0,1,6.208-.036,13.526,13.526,0,0,1,4.8,1.675,12.248,12.248,0,0,1,2.942,2.493,29.793,29.793,0,0,1,1.894,2.734,10.642,10.642,0,0,0-1.687-2.9,12.019,12.019,0,0,0-2.947-2.651,13.725,13.725,0,0,0-4.924-1.829,22.115,22.115,0,0,0-6.356-.049,36.554,36.554,0,0,0-7.111,1.584,41.151,41.151,0,0,0-7.364,3.25,30.678,30.678,0,0,0-3.584,2.333c-1.141.895-2.222,1.877-3.33,2.832a25.246,25.246,0,0,1-3.422,2.586A9.91,9.91,0,0,1,269.3,440.4c-2.684.355-5.258-.563-7.716-1.2-4.879-1.278-9.368-2.876-13.351-2.353a11.034,11.034,0,0,0-7.624,4.826,7.12,7.12,0,0,0-.949,2.316A3.257,3.257,0,0,0,239.58,444.858Z" transform="translate(-239.572 -426.274)"/></g><g transform="translate(44.255 12.215)"><path class="f" d="M267.26,441.642a13.173,13.173,0,0,0-2.627-1.82,75.787,75.787,0,0,0-13.926-6.547,13.159,13.159,0,0,0-3.076-.862,16.64,16.64,0,0,0,2.9,1.318c1.812.754,4.3,1.816,7.011,3.086s5.111,2.516,6.849,3.429A16.55,16.55,0,0,0,267.26,441.642Z" transform="translate(-247.63 -432.4)"/></g><g transform="translate(41.783 16.746)"><path class="f" d="M269.3,445.665c.083-.172-4.4-2.512-10.017-5.226s-10.237-4.778-10.32-4.606,4.4,2.511,10.02,5.226S269.218,445.836,269.3,445.665Z" transform="translate(-248.962 -435.823)"/></g><g transform="translate(40.87 13.656)"><path class="f" d="M246.849,448.645c.1.16,5.568-3.1,12.207-7.284S271,433.655,270.9,433.494s-5.566,3.1-12.209,7.284S246.749,448.484,246.849,448.645Z" transform="translate(-246.848 -433.489)"/></g><g transform="translate(37.793 10.997)"><path class="f" d="M253.736,443.972a16.331,16.331,0,0,0,2.676-1.788c1.608-1.159,3.826-2.762,6.309-4.484s4.763-3.236,6.412-4.336a16.265,16.265,0,0,0,2.614-1.878,13.786,13.786,0,0,0-2.87,1.465c-1.722,1-4.052,2.454-6.548,4.182s-4.676,3.4-6.212,4.664A13.81,13.81,0,0,0,253.736,443.972Z" transform="translate(-253.734 -431.479)"/></g></g></g></g></g></g></svg>