<svg xmlns="http://www.w3.org/2000/svg" width="65.909" height="57.542" viewBox="0 0 65.909 57.542"><defs><style>.a{fill:#18b5b1;}</style></defs><g transform="translate(0 -32.5)"><path class="a" d="M50.686,44.761V36.588a4.087,4.087,0,0,0-8.172-.131,35.557,35.557,0,0,1-18.935,7.492V42.675a3.894,3.894,0,0,0-3.889-3.891h-6.1A3.894,3.894,0,0,0,9.7,42.675v1.391a11,11,0,0,0,0,21.845V67.3a3.9,3.9,0,0,0,2.6,3.671V88.754a1.287,1.287,0,0,0,1.287,1.287h3.05a4.342,4.342,0,0,0,4.334-4.34V70.972a3.9,3.9,0,0,0,2.6-3.671V66.028A35.558,35.558,0,0,1,42.513,73.52a4.087,4.087,0,0,0,8.172-.131V65.216a11.271,11.271,0,0,0,0-20.455ZM19.011,63.414H14.269V46.562h4.742ZM12.277,42.675a1.317,1.317,0,0,1,1.314-1.316h6.1A1.317,1.317,0,0,1,21,42.675v1.313H12.277Zm-9.7,12.313a8.43,8.43,0,0,1,8.415-8.426h.705V63.414H10.99A8.43,8.43,0,0,1,2.575,54.988ZM18.4,85.7a1.764,1.764,0,0,1-1.76,1.765H14.879V71.192H18.4ZM21,67.3a1.317,1.317,0,0,1-1.314,1.316h-6.1A1.317,1.317,0,0,1,12.277,67.3V65.989H21Zm27.108,6.087a1.513,1.513,0,1,1-3.027,0V60.772a1.287,1.287,0,0,0-2.575,0v9.494c-5.075-3.625-12.953-6.852-20.219-6.852h-.705V46.562h.705c7.266,0,15.145-3.227,20.219-6.853V49.2a1.287,1.287,0,1,0,2.575,0V36.588a1.513,1.513,0,1,1,3.027,0v36.8Zm2.575-11.107V47.7a8.694,8.694,0,0,1,0,14.586Z" transform="translate(0)"/><path class="a" d="M475.283,197.2h-2.66a1.287,1.287,0,1,0,0,2.575h2.66a1.287,1.287,0,0,0,0-2.575Z" transform="translate(-410.661 -143.494)"/><path class="a" d="M462.191,119.7a1.283,1.283,0,0,0,.909-.376l2.656-2.651a1.287,1.287,0,0,0-1.819-1.822l-2.656,2.651a1.287,1.287,0,0,0,.909,2.2Z" transform="translate(-401.572 -71.425)"/><path class="a" d="M463.1,259.694a1.287,1.287,0,1,0-1.819,1.822l2.656,2.651a1.287,1.287,0,1,0,1.818-1.822Z" transform="translate(-401.573 -197.62)"/><path class="a" d="M331.516,197.2a1.287,1.287,0,0,0-1.287,1.287v.007a1.287,1.287,0,1,0,1.287-1.295Z" transform="translate(-287.719 -143.494)"/></g></svg>